<?xml version="1.0" standalone="no"?>
<!DOCTYPE svg PUBLIC "-//W3C//DTD SVG 20010904//EN"
 "http://www.w3.org/TR/2001/REC-SVG-20010904/DTD/svg10.dtd">
<svg version="1.0" xmlns="http://www.w3.org/2000/svg"
 width="1400.000000pt" height="1673.000000pt" viewBox="0 0 1400.000000 1673.000000"
 preserveAspectRatio="xMidYMid meet">

<g transform="translate(0.000000,1673.000000) scale(0.100000,-0.100000)"
fill="#000000" stroke="none">
<path d="M6900 15280 c0 -6 -37 -10 -90 -10 -53 0 -90 -4 -90 -10 0 -6 -30
-10 -70 -10 -40 0 -70 -4 -70 -10 0 -6 -30 -10 -70 -10 -40 0 -70 -4 -70 -10
0 -5 -22 -10 -50 -10 -27 0 -50 -4 -50 -10 0 -5 -18 -10 -40 -10 -22 0 -40 -4
-40 -10 0 -5 -18 -10 -40 -10 -22 0 -40 -4 -40 -10 0 -5 -18 -10 -40 -10 -22
0 -40 -4 -40 -10 0 -5 -13 -10 -30 -10 -16 0 -30 -4 -30 -10 0 -5 -13 -10 -30
-10 -16 0 -30 -4 -30 -10 0 -5 -13 -10 -30 -10 -16 0 -30 -4 -30 -10 0 -5 -13
-10 -30 -10 -16 0 -30 -4 -30 -10 0 -5 -13 -10 -30 -10 -16 0 -30 -4 -30 -10
0 -5 -9 -10 -20 -10 -11 0 -20 -4 -20 -10 0 -5 -13 -10 -30 -10 -16 0 -30 -4
-30 -10 0 -5 -9 -10 -20 -10 -11 0 -20 -4 -20 -10 0 -5 -9 -10 -20 -10 -11 0
-20 -4 -20 -10 0 -5 -9 -10 -20 -10 -11 0 -20 -4 -20 -10 0 -5 -9 -10 -20 -10
-11 0 -20 -4 -20 -10 0 -5 -9 -10 -20 -10 -11 0 -20 -4 -20 -10 0 -5 -9 -10
-20 -10 -11 0 -20 -4 -20 -10 0 -5 -8 -10 -18 -10 -10 0 -24 -9 -32 -20 -8
-11 -22 -20 -32 -20 -10 0 -18 -4 -18 -10 0 -5 -8 -10 -18 -10 -10 0 -24 -9
-32 -20 -8 -11 -21 -20 -30 -20 -9 0 -22 -9 -30 -20 -8 -11 -21 -20 -30 -20
-9 0 -22 -9 -30 -20 -8 -11 -21 -20 -28 -20 -7 0 -31 -18 -52 -40 -21 -22 -44
-40 -50 -40 -6 0 -33 -22 -60 -50 -27 -27 -54 -50 -59 -50 -14 0 -181 -166
-181 -180 0 -6 -31 -42 -70 -80 -38 -38 -70 -74 -70 -81 0 -6 -13 -24 -30 -39
-16 -15 -30 -34 -30 -42 0 -7 -9 -20 -20 -28 -11 -8 -20 -21 -20 -30 0 -9 -9
-22 -20 -30 -11 -8 -20 -21 -20 -30 0 -9 -9 -22 -20 -30 -11 -8 -20 -21 -20
-30 0 -9 -9 -22 -20 -30 -11 -8 -20 -22 -20 -32 0 -10 -4 -18 -10 -18 -5 0
-10 -9 -10 -20 0 -11 -4 -20 -10 -20 -5 0 -10 -9 -10 -20 0 -11 -4 -20 -10
-20 -5 0 -10 -8 -10 -18 0 -10 -9 -24 -20 -32 -11 -8 -20 -22 -20 -32 0 -10
-4 -18 -10 -18 -5 0 -10 -9 -10 -20 0 -11 -4 -20 -10 -20 -5 0 -10 -13 -10
-30 0 -16 -4 -30 -10 -30 -5 0 -10 -9 -10 -20 0 -11 -4 -20 -10 -20 -5 0 -10
-9 -10 -20 0 -16 -7 -20 -30 -20 -16 0 -30 -4 -30 -10 0 -5 -13 -10 -30 -10
-16 0 -30 -4 -30 -10 0 -5 -18 -10 -40 -10 -22 0 -40 -4 -40 -10 0 -5 -13 -10
-30 -10 -16 0 -30 -4 -30 -10 0 -5 -13 -10 -30 -10 -16 0 -30 -4 -30 -10 0 -5
-13 -10 -30 -10 -16 0 -30 -4 -30 -10 0 -5 -13 -10 -30 -10 -16 0 -30 -4 -30
-10 0 -5 -9 -10 -20 -10 -11 0 -20 -4 -20 -10 0 -5 -13 -10 -30 -10 -16 0 -30
-4 -30 -10 0 -5 -9 -10 -20 -10 -11 0 -20 -4 -20 -10 0 -5 -13 -10 -30 -10
-16 0 -30 -4 -30 -10 0 -5 -9 -10 -20 -10 -11 0 -20 -4 -20 -10 0 -5 -9 -10
-20 -10 -11 0 -20 -4 -20 -10 0 -5 -9 -10 -20 -10 -11 0 -20 -4 -20 -10 0 -5
-9 -10 -20 -10 -11 0 -20 -4 -20 -10 0 -5 -9 -10 -20 -10 -11 0 -20 -4 -20
-10 0 -5 -9 -10 -20 -10 -11 0 -20 -4 -20 -10 0 -5 -8 -10 -18 -10 -10 0 -24
-9 -32 -20 -8 -11 -21 -20 -30 -20 -9 0 -22 -9 -30 -20 -8 -11 -21 -20 -30
-20 -9 0 -22 -9 -30 -20 -8 -11 -21 -20 -28 -20 -8 0 -27 -13 -42 -30 -15 -16
-33 -30 -39 -30 -16 0 -281 -267 -281 -283 0 -7 -9 -19 -20 -27 -11 -8 -20
-21 -20 -30 0 -9 -9 -22 -20 -30 -11 -8 -20 -21 -20 -30 0 -9 -9 -22 -20 -30
-11 -8 -20 -22 -20 -32 0 -10 -4 -18 -10 -18 -5 0 -10 -13 -10 -30 0 -16 -4
-30 -10 -30 -5 0 -10 -9 -10 -20 0 -11 -4 -20 -10 -20 -5 0 -10 -9 -10 -20 0
-11 -4 -20 -10 -20 -5 0 -10 -13 -10 -30 0 -16 -4 -30 -10 -30 -5 0 -10 -13
-10 -30 0 -16 -4 -30 -10 -30 -5 0 -10 -22 -10 -50 0 -27 -4 -50 -10 -50 -6 0
-10 -27 -10 -60 0 -33 -4 -60 -10 -60 -6 0 -10 -48 -10 -125 0 -120 1 -127 25
-150 13 -14 30 -25 37 -25 8 0 20 -9 28 -20 8 -11 22 -20 32 -20 10 0 18 -4
18 -10 0 -5 8 -10 18 -10 10 0 24 -9 32 -20 8 -12 26 -20 42 -20 15 0 28 -4
28 -10 0 -5 9 -10 20 -10 11 0 20 -4 20 -10 0 -5 14 -10 30 -10 17 0 30 -4 30
-10 0 -5 18 -10 40 -10 22 0 40 -4 40 -10 0 -5 18 -10 40 -10 22 0 40 -4 40
-10 0 -6 27 -10 60 -10 33 0 60 -4 60 -10 0 -6 67 -10 180 -10 113 0 180 4
180 10 0 6 30 10 70 10 40 0 70 4 70 10 0 6 23 10 50 10 28 0 50 5 50 10 0 6
18 10 40 10 22 0 40 5 40 10 0 6 14 10 30 10 17 0 30 5 30 10 0 6 18 10 40 10
22 0 40 5 40 10 0 6 9 10 20 10 11 0 20 5 20 10 0 6 14 10 30 10 17 0 30 5 30
10 0 6 14 10 30 10 17 0 30 5 30 10 0 6 9 10 20 10 11 0 20 5 20 10 0 6 9 10
20 10 11 0 20 5 20 10 0 6 9 10 20 10 11 0 20 5 20 10 0 6 14 10 30 10 23 0
30 -4 30 -20 0 -11 5 -20 10 -20 6 0 10 -9 10 -20 0 -11 5 -20 10 -20 6 0 10
-9 10 -20 0 -11 5 -20 10 -20 6 0 10 -9 10 -20 0 -11 5 -20 10 -20 6 0 10 -9
10 -20 0 -11 5 -20 10 -20 6 0 10 -8 10 -18 0 -10 9 -24 20 -32 11 -8 20 -22
20 -32 0 -10 5 -18 10 -18 6 0 10 -8 10 -18 0 -10 9 -24 20 -32 11 -8 20 -21
20 -30 0 -9 9 -22 20 -30 11 -8 20 -21 20 -28 0 -7 18 -31 40 -52 22 -21 40
-43 40 -49 0 -15 307 -321 321 -321 6 0 24 -13 39 -30 15 -16 33 -30 40 -30 7
0 25 -13 40 -30 15 -16 34 -30 42 -30 7 0 20 -9 28 -20 8 -11 21 -20 30 -20 9
0 22 -9 30 -20 8 -11 22 -20 32 -20 10 0 18 -4 18 -10 0 -5 8 -10 18 -10 10 0
24 -9 32 -20 8 -11 22 -20 32 -20 10 0 18 -4 18 -10 0 -5 8 -10 18 -10 10 0
24 -9 32 -20 8 -11 26 -20 40 -20 14 0 32 -9 40 -20 8 -11 22 -20 32 -20 10 0
18 -4 18 -10 0 -5 9 -10 20 -10 11 0 20 -4 20 -10 0 -5 14 -10 30 -10 17 0 30
-4 30 -10 0 -5 14 -10 30 -10 17 0 30 -4 30 -10 0 -5 18 -10 40 -10 22 0 40
-4 40 -10 0 -5 18 -10 40 -10 22 0 40 -4 40 -10 0 -5 14 -10 30 -10 17 0 30
-4 30 -10 0 -5 18 -10 40 -10 22 0 40 -4 40 -10 0 -5 9 -10 20 -10 13 0 20 -7
20 -20 0 -11 -4 -20 -10 -20 -5 0 -10 -13 -10 -30 0 -16 -4 -30 -10 -30 -5 0
-10 -9 -10 -20 0 -20 -7 -20 -280 -20 -180 0 -280 -4 -280 -10 0 -7 -187 -10
-540 -10 -353 0 -540 -3 -540 -10 0 -5 -25 -10 -55 -10 -46 0 -60 -4 -80 -25
-24 -23 -25 -28 -25 -170 l0 -145 -110 0 c-67 0 -110 4 -110 10 0 6 -40 10
-100 10 -60 0 -100 4 -100 10 0 6 -40 10 -100 10 -60 0 -100 4 -100 10 0 6
-40 10 -100 10 -60 0 -100 4 -100 10 0 6 -40 10 -100 10 -60 0 -100 4 -100 10
0 6 -43 10 -110 10 -67 0 -110 4 -110 10 0 6 -40 10 -100 10 -60 0 -100 4
-100 10 0 6 -40 10 -100 10 -60 0 -100 4 -100 10 0 6 -40 10 -100 10 -60 0
-100 4 -100 10 0 6 -18 10 -40 10 l-40 0 0 60 c0 33 4 60 10 60 6 0 10 33 10
80 0 47 4 80 10 80 6 0 10 30 10 70 0 40 4 70 10 70 6 0 10 30 10 70 0 40 4
70 10 70 6 0 10 30 10 70 0 40 -4 70 -10 70 -5 0 -10 9 -10 20 0 13 -7 20 -19
20 -11 0 -22 6 -25 13 -5 10 -7 10 -12 0 -3 -7 -12 -13 -20 -13 -8 0 -26 -11
-39 -25 -22 -21 -25 -33 -25 -90 0 -37 -4 -65 -10 -65 -6 0 -10 -33 -10 -80 0
-47 -4 -80 -10 -80 -6 0 -10 -30 -10 -70 0 -40 -4 -70 -10 -70 -6 0 -10 -32
-10 -76 0 -57 -4 -79 -17 -92 -12 -12 -18 -13 -21 -4 -2 6 -12 12 -23 12 -10
0 -19 5 -19 10 0 6 -9 10 -20 10 -11 0 -20 5 -20 10 0 6 -8 10 -18 10 -10 0
-24 9 -32 20 -8 11 -22 20 -32 20 -10 0 -18 5 -18 10 0 6 -9 10 -20 10 -11 0
-20 5 -20 10 0 6 -8 10 -18 10 -10 0 -24 9 -32 20 -8 11 -22 20 -32 20 -10 0
-18 5 -18 10 0 6 -9 10 -20 10 -11 0 -20 5 -20 10 0 6 -8 10 -18 10 -10 0 -24
9 -32 20 -8 11 -22 20 -32 20 -10 0 -18 5 -18 10 0 6 -9 10 -20 10 -11 0 -20
5 -20 10 0 6 -9 10 -20 10 -11 0 -20 5 -20 10 0 6 -8 10 -18 10 -10 0 -24 9
-32 20 -8 11 -22 20 -32 20 -10 0 -18 5 -18 10 0 6 -8 10 -18 10 -10 0 -24 9
-32 20 -8 11 -22 20 -32 20 -10 0 -18 5 -18 10 0 6 -9 10 -20 10 -11 0 -20 5
-20 10 0 16 -89 12 -106 -4 -24 -24 -18 -93 11 -121 13 -14 31 -25 40 -25 8 0
15 -4 15 -10 0 -5 9 -10 20 -10 11 0 20 -4 20 -10 0 -5 8 -10 18 -10 10 0 24
-9 32 -20 8 -11 22 -20 32 -20 10 0 18 -4 18 -10 0 -5 9 -10 20 -10 11 0 20
-4 20 -10 0 -5 9 -10 20 -10 11 0 20 -4 20 -10 0 -5 8 -10 18 -10 10 0 24 -9
32 -20 8 -11 22 -20 32 -20 10 0 18 -4 18 -10 0 -5 8 -10 18 -10 10 0 24 -9
32 -20 8 -11 22 -20 32 -20 10 0 18 -4 18 -10 0 -5 9 -10 20 -10 11 0 20 -4
20 -10 0 -5 9 -10 20 -10 11 0 20 -4 20 -10 0 -5 7 -10 16 -10 15 0 44 -23 44
-34 0 -3 -22 -6 -50 -6 -27 0 -50 5 -50 10 0 6 -43 10 -110 10 -67 0 -110 4
-110 10 0 6 -32 10 -76 10 -77 0 -104 -11 -104 -43 0 -9 -6 -18 -12 -21 -11
-5 -11 -7 0 -12 6 -3 12 -19 12 -35 0 -22 5 -29 20 -29 11 0 20 -4 20 -10 0
-6 33 -10 80 -10 47 0 80 -4 80 -10 0 -6 43 -10 110 -10 67 0 110 -4 110 -10
0 -6 40 -10 100 -10 83 0 100 -3 100 -15 0 -9 -68 -83 -150 -165 -83 -82 -150
-156 -150 -165 0 -8 -9 -15 -20 -15 -13 0 -20 -7 -20 -18 0 -10 -9 -24 -20
-32 -21 -15 -28 -70 -10 -70 6 0 10 -9 10 -20 0 -15 7 -20 29 -20 16 0 32 -6
35 -12 5 -10 7 -10 12 0 3 6 17 12 31 12 28 0 53 21 53 44 0 9 5 16 10 16 6 0
10 7 10 15 0 13 282 305 295 305 3 0 5 -18 5 -40 0 -22 -4 -40 -10 -40 -6 0
-10 -33 -10 -80 0 -47 -4 -80 -10 -80 -6 0 -10 -42 -10 -106 0 -122 6 -134 70
-134 48 0 70 17 70 54 0 14 5 26 10 26 6 0 10 37 10 90 0 53 4 90 10 90 6 0
10 30 10 70 0 40 4 70 10 70 6 0 10 32 10 76 0 52 4 80 14 90 17 16 106 20
106 4 0 -6 43 -10 110 -10 67 0 110 -4 110 -10 0 -6 43 -10 110 -10 67 0 110
-4 110 -10 0 -6 40 -10 100 -10 60 0 100 -4 100 -10 0 -6 40 -10 100 -10 60 0
100 -4 100 -10 0 -6 40 -10 100 -10 60 0 100 -4 100 -10 0 -6 40 -10 100 -10
60 0 100 -4 100 -10 0 -6 40 -10 100 -10 60 0 100 -4 100 -10 0 -6 43 -10 110
-10 67 0 110 -4 110 -10 0 -6 37 -10 90 -10 l90 0 0 -220 c0 -140 4 -220 10
-220 6 0 10 -9 10 -20 0 -11 -4 -20 -10 -20 -6 0 -10 -33 -10 -80 0 -47 4 -80
10 -80 6 0 10 -102 10 -286 0 -234 3 -288 14 -300 12 -11 53 -14 200 -14 117
0 186 4 186 10 0 6 60 10 160 10 100 0 160 4 160 10 0 6 63 10 170 10 107 0
170 4 170 10 0 6 47 10 120 10 113 0 120 -1 120 -20 0 -11 -4 -20 -10 -20 -5
0 -10 -18 -10 -40 0 -22 -4 -40 -10 -40 -5 0 -10 -13 -10 -30 0 -16 -4 -30
-10 -30 -5 0 -10 -13 -10 -30 0 -16 -4 -30 -10 -30 -5 0 -10 -18 -10 -40 0
-22 -4 -40 -10 -40 -5 0 -10 -13 -10 -30 0 -16 -4 -30 -10 -30 -5 0 -10 -13
-10 -30 0 -16 -4 -30 -10 -30 -5 0 -10 -13 -10 -30 0 -16 -4 -30 -10 -30 -5 0
-10 -18 -10 -40 0 -22 -4 -40 -10 -40 -5 0 -10 -13 -10 -30 0 -16 -4 -30 -10
-30 -5 0 -10 -13 -10 -30 0 -16 -4 -30 -10 -30 -5 0 -10 -13 -10 -30 0 -16 -4
-30 -10 -30 -5 0 -10 -18 -10 -40 0 -22 -4 -40 -10 -40 -5 0 -10 -13 -10 -30
0 -16 -4 -30 -10 -30 -5 0 -10 -18 -10 -40 0 -22 -4 -40 -10 -40 -5 0 -10 -13
-10 -30 0 -16 -4 -30 -10 -30 -5 0 -10 -13 -10 -30 0 -16 -4 -30 -10 -30 -5 0
-10 -13 -10 -30 0 -16 -4 -30 -10 -30 -5 0 -10 -18 -10 -40 0 -22 -4 -40 -10
-40 -5 0 -10 -13 -10 -30 0 -16 -4 -30 -10 -30 -5 0 -10 -13 -10 -30 0 -16 -4
-30 -10 -30 -5 0 -10 -13 -10 -30 0 -16 -4 -30 -10 -30 -5 0 -10 -18 -10 -40
0 -22 -4 -40 -10 -40 -5 0 -10 -13 -10 -30 0 -16 -4 -30 -10 -30 -5 0 -10 -13
-10 -30 0 -16 -4 -30 -10 -30 -5 0 -10 -13 -10 -30 0 -16 -4 -30 -10 -30 -5 0
-10 -18 -10 -40 0 -22 -4 -40 -10 -40 -5 0 -10 -13 -10 -30 0 -16 -4 -30 -10
-30 -5 0 -10 -13 -10 -30 0 -16 -4 -30 -10 -30 -5 0 -10 -13 -10 -30 0 -16 -4
-30 -10 -30 -5 0 -10 -18 -10 -40 0 -22 -4 -40 -10 -40 -5 0 -10 -13 -10 -30
0 -16 -4 -30 -10 -30 -5 0 -10 -13 -10 -30 0 -16 -4 -30 -10 -30 -5 0 -10 -18
-10 -40 0 -22 -4 -40 -10 -40 -5 0 -10 -13 -10 -30 0 -16 -4 -30 -10 -30 -5 0
-10 -13 -10 -30 0 -16 -4 -30 -10 -30 -5 0 -10 -13 -10 -30 0 -16 -4 -30 -10
-30 -5 0 -10 -18 -10 -40 0 -22 -4 -40 -10 -40 -5 0 -10 -13 -10 -30 0 -16 -4
-30 -10 -30 -5 0 -10 -13 -10 -30 0 -16 -4 -30 -10 -30 -5 0 -10 -13 -10 -30
0 -16 -4 -30 -10 -30 -5 0 -10 -18 -10 -39 0 -22 -6 -42 -12 -45 -10 -5 -10
-7 0 -12 6 -3 12 -12 12 -21 0 -19 24 -43 43 -43 9 0 18 -6 21 -12 5 -10 7
-10 12 0 4 8 39 12 125 12 l119 0 0 -1426 c0 -1222 2 -1427 14 -1440 17 -17
246 -21 246 -4 0 6 43 10 110 10 67 0 110 4 110 10 0 6 40 10 100 10 60 0 100
4 100 10 0 6 33 10 80 10 l80 0 0 -220 c0 -140 -4 -220 -10 -220 -6 0 -10 -70
-10 -190 0 -120 -4 -190 -10 -190 -6 0 -10 -77 -10 -210 0 -133 -4 -210 -10
-210 -6 0 -10 -80 -10 -220 0 -140 -4 -220 -10 -220 -6 0 -10 -70 -10 -190 0
-120 -4 -190 -10 -190 -5 0 -10 -13 -10 -29 0 -32 -17 -41 -85 -41 -143 0
-489 -59 -660 -111 -306 -94 -465 -253 -431 -434 10 -50 66 -110 123 -129 101
-35 288 -14 531 60 242 73 679 262 701 302 18 34 13 71 -14 97 -33 34 -63 31
-153 -14 -193 -97 -508 -216 -707 -268 -106 -27 -289 -42 -314 -25 -24 17 -5
76 41 121 124 124 486 216 972 247 149 9 156 16 156 149 0 57 4 95 10 95 6 0
10 87 10 240 0 153 4 240 10 240 6 0 10 70 10 190 0 120 4 190 10 190 6 0 10
80 10 220 0 140 4 220 10 220 6 0 10 70 10 190 0 120 4 190 10 190 6 0 10 70
10 190 l0 190 40 0 c22 0 40 5 40 10 0 6 40 10 100 10 60 0 100 4 100 10 0 6
37 10 90 10 53 0 90 4 90 10 0 6 43 10 110 10 67 0 110 4 110 10 0 6 33 10 80
10 47 0 80 4 80 10 0 6 7 10 16 10 20 0 44 24 44 44 0 9 5 16 10 16 6 0 10 14
10 30 0 17 5 30 10 30 6 0 10 9 10 20 0 11 5 20 10 20 6 0 10 9 10 20 0 11 5
20 10 20 6 0 10 9 10 20 0 11 5 20 10 20 6 0 10 9 10 20 0 11 5 20 10 20 6 0
10 9 10 20 0 11 5 20 10 20 6 0 10 9 10 20 0 11 3 20 6 20 14 0 34 -31 34 -54
0 -14 5 -26 10 -26 6 0 10 -13 10 -30 0 -16 5 -30 10 -30 6 0 10 -13 10 -30 0
-16 5 -30 10 -30 6 0 10 -9 10 -20 0 -11 5 -20 10 -20 6 0 10 -13 10 -30 0
-16 5 -30 10 -30 6 0 10 -9 10 -20 0 -13 7 -20 20 -20 11 0 20 -4 20 -10 0 -5
14 -10 30 -10 17 0 30 5 30 10 0 6 23 10 50 10 28 0 50 5 50 10 0 6 27 10 60
10 33 0 60 4 60 10 0 6 23 10 50 10 28 0 50 5 50 10 0 6 23 10 50 10 28 0 50
5 50 10 0 6 27 10 60 10 33 0 60 4 60 10 0 6 23 10 50 10 28 0 50 5 50 10 0 6
27 10 60 10 33 0 60 4 60 10 0 6 23 10 50 10 28 0 50 5 50 10 0 6 18 10 40 10
l40 0 0 -50 c0 -27 5 -50 10 -50 6 0 10 -33 10 -80 0 -47 4 -80 10 -80 6 0 10
-30 10 -70 0 -40 4 -70 10 -70 6 0 10 -37 10 -90 0 -53 4 -90 10 -90 6 0 10
-30 10 -70 0 -40 4 -70 10 -70 6 0 10 -33 10 -80 0 -47 4 -80 10 -80 6 0 10
-30 10 -70 0 -40 4 -70 10 -70 6 0 10 -33 10 -80 0 -47 4 -80 10 -80 6 0 10
-30 10 -70 0 -40 4 -70 10 -70 6 0 10 -33 10 -80 0 -47 4 -80 10 -80 6 0 10
-33 10 -80 0 -47 4 -80 10 -80 6 0 10 -33 10 -80 0 -47 4 -80 10 -80 6 0 10
-30 10 -70 0 -40 4 -70 10 -70 6 0 10 -33 10 -80 0 -47 4 -80 10 -80 6 0 10
-20 10 -44 0 -49 -10 -56 -87 -56 -23 0 -115 -9 -205 -21 -619 -79 -915 -229
-896 -454 17 -209 260 -249 683 -114 249 79 653 257 674 297 28 52 -9 122 -64
122 -14 0 -65 -20 -114 -45 -203 -101 -488 -211 -681 -261 -117 -30 -274 -41
-310 -22 -63 34 -21 108 93 162 184 88 476 149 847 177 165 12 195 22 206 64
3 14 14 25 23 26 10 0 11 2 4 6 -9 3 -13 28 -13 74 0 39 -4 69 -10 69 -6 0
-10 33 -10 80 0 47 -4 80 -10 80 -6 0 -10 33 -10 80 0 47 -4 80 -10 80 -6 0
-10 30 -10 70 0 40 -4 70 -10 70 -6 0 -10 37 -10 90 0 53 -4 90 -10 90 -6 0
-10 30 -10 70 0 40 -4 70 -10 70 -6 0 -10 33 -10 80 0 47 -4 80 -10 80 -6 0
-10 30 -10 70 0 40 -4 70 -10 70 -6 0 -10 33 -10 80 0 47 -4 80 -10 80 -6 0
-10 33 -10 80 0 47 -4 80 -10 80 -6 0 -10 33 -10 80 0 47 -4 80 -10 80 -6 0
-10 30 -10 70 0 40 -4 70 -10 70 -6 0 -10 33 -10 80 0 47 -4 80 -10 80 -6 0
-10 30 -10 70 0 40 -4 70 -10 70 -6 0 -10 33 -10 80 l0 80 50 0 c28 0 50 5 50
10 0 6 23 10 50 10 28 0 50 5 50 10 0 6 23 10 50 10 28 0 50 5 50 10 0 6 27
10 60 10 33 0 60 4 60 10 0 6 23 10 50 10 28 0 50 5 50 10 0 6 27 10 60 10 33
0 60 4 60 10 0 6 23 10 50 10 28 0 50 5 50 10 0 6 23 10 50 10 28 0 50 5 50
10 0 6 7 10 16 10 28 0 44 27 44 74 0 25 -4 46 -10 46 -5 0 -10 18 -10 40 0
22 -4 40 -10 40 -5 0 -10 18 -10 40 0 22 -4 40 -10 40 -5 0 -10 18 -10 40 0
22 -4 40 -10 40 -5 0 -10 14 -10 30 0 17 -4 30 -10 30 -5 0 -10 18 -10 40 0
22 -4 40 -10 40 -5 0 -10 18 -10 40 0 22 -4 40 -10 40 -5 0 -10 18 -10 40 0
22 -4 40 -10 40 -5 0 -10 18 -10 40 0 22 -4 40 -10 40 -5 0 -10 14 -10 30 0
17 -4 30 -10 30 -5 0 -10 18 -10 40 0 22 -4 40 -10 40 -5 0 -10 14 -10 30 0
17 -4 30 -10 30 -5 0 -10 18 -10 40 0 22 -4 40 -10 40 -5 0 -10 18 -10 40 0
22 -4 40 -10 40 -5 0 -10 18 -10 40 0 22 -4 40 -10 40 -5 0 -10 18 -10 40 0
22 -4 40 -10 40 -5 0 -10 14 -10 30 0 17 -4 30 -10 30 -5 0 -10 18 -10 40 0
22 -4 40 -10 40 -5 0 -10 18 -10 40 0 22 -4 40 -10 40 -5 0 -10 18 -10 40 0
22 -4 40 -10 40 -5 0 -10 14 -10 30 0 17 -4 30 -10 30 -5 0 -10 18 -10 40 0
22 -4 40 -10 40 -5 0 -10 18 -10 40 0 22 -4 40 -10 40 -5 0 -10 18 -10 40 0
22 -4 40 -10 40 -5 0 -10 18 -10 40 0 22 -4 40 -10 40 -5 0 -10 18 -10 40 0
22 -4 40 -10 40 -5 0 -10 14 -10 30 0 17 -4 30 -10 30 -5 0 -10 18 -10 40 0
22 -4 40 -10 40 -5 0 -10 18 -10 40 0 22 -4 40 -10 40 -5 0 -10 14 -10 30 0
17 -4 30 -10 30 -5 0 -10 18 -10 40 0 22 -4 40 -10 40 -5 0 -10 18 -10 40 0
22 -4 40 -10 40 -5 0 -10 18 -10 40 0 22 -4 40 -10 40 -5 0 -10 13 -10 29 0
16 -6 31 -12 33 -9 3 -8 9 4 21 13 13 35 17 92 17 44 0 76 4 76 10 0 6 47 10
120 10 73 0 120 4 120 10 0 6 28 10 65 10 57 0 69 3 90 25 19 18 25 35 25 70
0 25 -4 45 -10 45 -5 0 -10 18 -10 40 0 22 -4 40 -10 40 -5 0 -10 14 -10 30 0
17 -4 30 -10 30 -5 0 -10 18 -10 40 0 22 -4 40 -10 40 -5 0 -10 14 -10 30 0
17 -4 30 -10 30 -5 0 -10 18 -10 40 0 22 -4 40 -10 40 -5 0 -10 14 -10 30 0
17 -4 30 -10 30 -5 0 -10 18 -10 40 0 22 -4 40 -10 40 -5 0 -10 14 -10 30 0
17 -4 30 -10 30 -5 0 -10 18 -10 40 0 22 -4 40 -10 40 -5 0 -10 14 -10 30 0
17 -4 30 -10 30 -5 0 -10 18 -10 40 0 22 -4 40 -10 40 -5 0 -10 14 -10 30 0
17 -4 30 -10 30 -5 0 -10 14 -10 30 0 17 -4 30 -10 30 -5 0 -10 18 -10 40 0
22 -4 40 -10 40 -5 0 -10 18 -10 40 0 22 -4 40 -10 40 -5 0 -10 14 -10 30 0
17 -4 30 -10 30 -5 0 -10 18 -10 40 0 22 -4 40 -10 40 -5 0 -10 14 -10 30 0
17 -4 30 -10 30 -5 0 -10 18 -10 40 0 22 -4 40 -10 40 -5 0 -10 14 -10 30 0
17 -4 30 -10 30 -5 0 -10 18 -10 40 0 22 -4 40 -10 40 -5 0 -10 14 -10 30 0
17 -4 30 -10 30 -5 0 -10 18 -10 40 0 22 -4 40 -10 40 -5 0 -10 14 -10 30 0
17 -4 30 -10 30 -5 0 -10 18 -10 40 0 22 -4 40 -10 40 -5 0 -10 14 -10 30 0
17 -4 30 -10 30 -5 0 -10 18 -10 40 0 22 -4 40 -10 40 -5 0 -10 14 -10 30 0
17 -4 30 -10 30 -5 0 -10 14 -10 30 0 17 -4 30 -10 30 -5 0 -10 18 -10 40 0
22 -4 40 -10 40 -5 0 -10 14 -10 30 0 27 3 30 30 30 17 0 30 -4 30 -10 0 -6
40 -10 100 -10 60 0 100 -4 100 -10 0 -6 37 -10 90 -10 53 0 90 -4 90 -10 0
-6 37 -10 90 -10 53 0 90 -4 90 -10 0 -6 37 -10 90 -10 53 0 90 -4 90 -10 0
-5 16 -10 35 -10 38 0 85 36 85 65 0 8 5 15 10 15 6 0 10 27 10 60 0 33 4 60
10 60 6 0 10 27 10 60 0 33 4 60 10 60 6 0 10 30 10 70 0 40 4 70 10 70 6 0
10 30 10 70 0 40 4 70 10 70 6 0 10 23 10 50 0 28 5 50 10 50 6 0 10 32 10 76
0 52 4 80 14 90 17 16 66 19 66 4 0 -5 23 -10 50 -10 28 0 50 -4 50 -10 0 -5
18 -10 40 -10 22 0 40 -4 40 -10 0 -5 23 -10 50 -10 28 0 50 -4 50 -10 0 -5
18 -10 40 -10 22 0 40 -4 40 -10 0 -5 18 -10 40 -10 22 0 40 -4 40 -10 0 -5
23 -10 50 -10 28 0 50 -4 50 -10 0 -5 23 -10 50 -10 28 0 50 -4 50 -10 0 -5
18 -10 40 -10 22 0 40 -4 40 -10 0 -5 18 -10 40 -10 22 0 40 -4 40 -10 0 -5
23 -10 50 -10 28 0 50 -4 50 -10 0 -5 18 -10 40 -10 22 0 40 -4 40 -10 0 -5
23 -10 50 -10 28 0 50 -4 50 -10 0 -5 18 -10 40 -10 22 0 40 -4 40 -10 0 -5
18 -10 40 -10 22 0 40 -4 40 -10 0 -5 23 -10 50 -10 28 0 50 -4 50 -10 0 -5
18 -10 40 -10 22 0 40 -4 40 -10 0 -5 18 -10 40 -10 22 0 40 -4 40 -10 0 -5
18 -10 40 -10 22 0 40 -4 40 -10 0 -5 14 -10 30 -10 28 0 30 -2 30 -40 0 -22
-4 -40 -10 -40 -6 0 -10 -33 -10 -80 0 -47 -4 -80 -10 -80 -6 0 -10 -37 -10
-90 0 -53 -4 -90 -10 -90 -6 0 -10 -37 -10 -90 0 -53 -4 -90 -10 -90 -6 0 -10
-37 -10 -90 0 -53 -4 -90 -10 -90 -6 0 -10 -32 -10 -75 0 -67 3 -79 25 -100
40 -41 115 -28 115 19 0 9 5 16 10 16 6 0 10 37 10 90 0 53 4 90 10 90 6 0 10
33 10 80 0 47 4 80 10 80 6 0 10 33 10 80 0 47 4 80 10 80 6 0 10 37 10 90 0
53 4 90 10 90 6 0 10 23 10 50 0 28 3 50 6 50 10 0 34 -28 34 -40 0 -6 18 -29
40 -50 22 -21 40 -44 40 -50 0 -6 18 -29 40 -50 22 -21 40 -44 40 -50 0 -6 23
-33 50 -60 28 -27 50 -54 50 -60 0 -6 18 -29 40 -50 22 -21 40 -43 40 -49 0
-6 25 -36 55 -66 63 -64 99 -72 140 -30 25 24 35 75 15 75 -5 0 -10 7 -10 16
0 9 -13 29 -30 44 -16 15 -30 33 -30 40 0 6 -23 33 -50 60 -27 27 -50 54 -50
60 0 6 -18 29 -40 50 -22 21 -40 44 -40 50 0 6 -22 33 -50 60 -28 27 -50 54
-50 60 0 6 -18 29 -40 50 -22 21 -40 41 -40 44 0 3 23 6 50 6 28 0 50 -4 50
-10 0 -5 18 -10 40 -10 22 0 40 -4 40 -10 0 -5 18 -10 40 -10 22 0 40 -4 40
-10 0 -5 23 -10 50 -10 28 0 50 -4 50 -10 0 -5 18 -10 40 -10 22 0 40 -4 40
-10 0 -5 23 -10 50 -10 28 0 50 -4 50 -10 0 -16 129 -12 146 4 8 8 14 33 14
56 0 43 -17 70 -44 70 -9 0 -16 5 -16 10 0 6 -22 10 -50 10 -27 0 -50 5 -50
10 0 6 -18 10 -40 10 -22 0 -40 5 -40 10 0 6 -22 10 -50 10 -27 0 -50 5 -50
10 0 6 -18 10 -40 10 -22 0 -40 5 -40 10 0 6 -22 10 -50 10 -27 0 -50 5 -50
10 0 6 -18 10 -40 10 -22 0 -40 5 -40 10 0 6 -18 10 -40 10 -22 0 -40 5 -40
10 0 6 -9 10 -20 10 -11 0 -20 5 -20 10 0 6 7 10 16 10 9 0 29 14 44 30 15 17
33 30 40 30 7 0 25 14 40 30 15 17 34 30 42 30 7 0 20 9 28 20 8 11 21 20 28
20 8 0 27 14 42 30 15 17 33 30 40 30 7 0 25 14 40 30 15 17 33 30 40 30 7 0
25 14 40 30 15 17 33 30 39 30 6 0 32 20 56 45 53 53 59 92 20 130 -24 25 -75
35 -75 15 0 -5 -7 -10 -16 -10 -9 0 -29 -13 -44 -30 -15 -16 -34 -30 -42 -30
-7 0 -20 -9 -28 -20 -8 -11 -21 -20 -28 -20 -8 0 -27 -13 -42 -30 -15 -16 -33
-30 -40 -30 -7 0 -25 -14 -40 -30 -15 -16 -33 -30 -40 -30 -7 0 -25 -13 -40
-30 -15 -16 -33 -30 -40 -30 -7 0 -25 -13 -40 -30 -15 -16 -35 -30 -44 -30 -9
0 -16 -4 -16 -10 0 -5 -9 -10 -20 -10 -11 0 -20 5 -20 10 0 6 5 10 10 10 6 0
10 18 10 40 0 22 5 40 10 40 6 0 10 14 10 30 0 17 5 30 10 30 6 0 10 18 10 40
0 22 5 40 10 40 6 0 10 14 10 30 0 17 5 30 10 30 6 0 10 18 10 40 0 22 5 40
10 40 16 0 12 129 -4 146 -8 8 -33 14 -56 14 -43 0 -70 -17 -70 -44 0 -9 -4
-16 -10 -16 -5 0 -10 -18 -10 -40 0 -22 -4 -40 -10 -40 -5 0 -10 -18 -10 -40
0 -22 -4 -40 -10 -40 -5 0 -10 -18 -10 -40 0 -22 -4 -40 -10 -40 -5 0 -10 -13
-10 -30 0 -16 -4 -30 -10 -30 -5 0 -10 -18 -10 -40 0 -22 -4 -40 -10 -40 -5 0
-10 -18 -10 -40 0 -22 -4 -40 -10 -40 -5 0 -10 -13 -10 -30 0 -16 -4 -30 -10
-30 -5 0 -10 -18 -10 -40 l0 -40 -40 0 c-22 0 -40 5 -40 10 0 6 -18 10 -40 10
-22 0 -40 5 -40 10 0 6 -22 10 -50 10 -27 0 -50 5 -50 10 0 6 -18 10 -40 10
-22 0 -40 5 -40 10 0 6 -18 10 -40 10 -22 0 -40 5 -40 10 0 6 -22 10 -50 10
-27 0 -50 5 -50 10 0 6 -18 10 -40 10 -22 0 -40 5 -40 10 0 6 -22 10 -50 10
-27 0 -50 5 -50 10 0 6 -18 10 -40 10 -22 0 -40 5 -40 10 0 6 -22 10 -50 10
-27 0 -50 5 -50 10 0 6 -18 10 -40 10 -22 0 -40 5 -40 10 0 6 -18 10 -40 10
-22 0 -40 5 -40 10 0 6 -22 10 -50 10 -27 0 -50 5 -50 10 0 6 -18 10 -40 10
-22 0 -40 5 -40 10 0 6 -22 10 -50 10 -27 0 -50 5 -50 10 0 6 -18 10 -40 10
-22 0 -40 5 -40 10 0 6 -22 10 -50 10 -27 0 -50 5 -50 10 0 6 -18 10 -40 10
-22 0 -40 5 -40 10 0 6 -18 10 -40 10 -22 0 -40 5 -40 10 0 6 -13 10 -30 10
-27 0 -30 3 -30 30 0 17 5 30 10 30 6 0 10 27 10 60 0 33 4 60 10 60 6 0 10
30 10 70 0 40 4 70 10 70 6 0 10 27 10 60 0 33 4 60 10 60 6 0 10 14 10 30 0
17 -4 30 -10 30 -5 0 -10 7 -10 16 0 26 -26 44 -64 44 -20 0 -36 5 -36 10 0 6
-22 10 -50 10 -27 0 -50 5 -50 10 0 6 -18 10 -40 10 -22 0 -40 5 -40 10 0 6
-22 10 -50 10 -27 0 -50 5 -50 10 0 6 -18 10 -40 10 -22 0 -40 5 -40 10 0 6
-22 10 -50 10 -27 0 -50 5 -50 10 0 6 -22 10 -50 10 -27 0 -50 5 -50 10 0 6
-18 10 -40 10 -22 0 -40 5 -40 10 0 6 -22 10 -50 10 -27 0 -50 5 -50 10 0 6
-18 10 -40 10 -22 0 -40 5 -40 10 0 6 -22 10 -50 10 -27 0 -50 5 -50 10 0 6
-22 10 -50 10 -27 0 -50 5 -50 10 0 6 -18 10 -40 10 -22 0 -40 5 -40 10 0 6
-22 10 -50 10 -27 0 -50 5 -50 10 0 6 -18 10 -40 10 -22 0 -40 5 -40 10 0 6
-22 10 -50 10 -27 0 -50 5 -50 10 0 6 -18 10 -40 10 -22 0 -40 5 -40 10 0 6
-18 10 -40 10 -22 0 -40 5 -40 10 0 6 -25 10 -56 10 -75 0 -84 11 -84 104 l0
76 30 0 c17 0 30 5 30 10 0 6 14 10 30 10 17 0 30 5 30 10 0 6 9 10 20 10 11
0 20 5 20 10 0 6 9 10 20 10 11 0 20 5 20 10 0 6 14 10 30 10 17 0 30 5 30 10
0 6 9 10 20 10 11 0 20 5 20 10 0 6 8 10 18 10 10 0 24 9 32 20 8 11 22 20 32
20 10 0 18 5 18 10 0 6 8 10 18 10 10 0 24 9 32 20 8 11 21 20 30 20 9 0 22 9
30 20 8 11 21 20 30 20 9 0 22 9 30 20 8 11 21 20 28 20 7 0 31 18 52 40 21
22 43 40 49 40 15 0 281 266 281 281 0 6 18 28 40 49 22 21 40 44 40 50 0 7
14 25 30 40 17 15 30 34 30 42 0 7 9 20 20 28 11 8 20 21 20 30 0 9 9 22 20
30 11 8 20 21 20 30 0 9 9 22 20 30 11 8 20 21 20 30 0 9 9 22 20 30 11 8 20
21 20 30 0 9 9 22 20 30 11 8 20 21 20 30 0 9 9 22 20 30 11 8 20 22 20 32 0
10 5 18 10 18 6 0 10 8 10 18 0 10 9 24 20 32 11 8 20 22 20 32 0 10 5 18 10
18 6 0 10 8 10 18 0 10 9 24 20 32 11 8 20 22 20 32 0 10 5 18 10 18 6 0 10 9
10 20 0 11 5 20 10 20 6 0 10 9 10 20 0 11 5 20 10 20 6 0 10 9 10 20 0 11 5
20 10 20 6 0 10 9 10 20 0 11 5 20 10 20 6 0 10 9 10 20 0 11 5 20 10 20 6 0
10 9 10 20 0 11 5 20 10 20 6 0 10 14 10 30 0 17 5 30 10 30 6 0 10 9 10 20 0
11 5 20 10 20 6 0 10 9 10 20 0 11 5 20 10 20 6 0 10 14 10 30 0 17 5 30 10
30 6 0 10 14 10 30 0 17 5 30 10 30 6 0 10 14 10 30 0 17 5 30 10 30 6 0 10 9
10 20 0 13 7 20 20 20 11 0 20 -4 20 -10 0 -5 23 -10 50 -10 28 0 50 -4 50
-10 0 -6 27 -10 60 -10 33 0 60 4 60 10 0 6 18 10 40 10 22 0 40 5 40 10 0 6
14 10 30 10 17 0 30 5 30 10 0 6 8 10 18 10 10 0 24 9 32 20 8 11 20 20 28 20
7 0 24 11 37 25 14 13 25 30 25 37 0 8 9 20 20 28 12 8 20 26 20 42 0 15 5 28
10 28 6 0 10 27 10 60 0 33 -4 60 -10 60 -5 0 -10 13 -10 28 0 16 -8 34 -20
42 -11 8 -20 20 -20 28 0 17 -45 62 -62 62 -8 0 -20 9 -28 20 -8 11 -22 20
-32 20 -10 0 -18 5 -18 10 0 6 -13 10 -30 10 -16 0 -30 5 -30 10 0 6 -18 10
-40 10 -22 0 -40 5 -40 10 0 6 -33 10 -80 10 l-80 0 0 160 c0 100 -4 160 -10
160 -5 0 -10 23 -10 50 0 28 -4 50 -10 50 -5 0 -10 18 -10 40 0 22 -4 40 -10
40 -5 0 -10 18 -10 40 0 33 3 40 20 40 11 0 20 -4 20 -10 0 -5 14 -10 30 -10
17 0 30 -4 30 -10 0 -5 18 -10 40 -10 22 0 40 -4 40 -10 0 -5 18 -10 40 -10
22 0 40 -4 40 -10 0 -5 23 -10 50 -10 28 0 50 -4 50 -10 0 -21 70 -10 95 15
52 51 15 135 -60 135 -19 0 -35 5 -35 10 0 6 -22 10 -50 10 -27 0 -50 5 -50
10 0 6 -13 10 -30 10 -16 0 -30 5 -30 10 0 6 -18 10 -40 10 -22 0 -40 5 -40
10 0 6 -13 10 -30 10 -16 0 -30 5 -30 10 0 6 -9 10 -20 10 -11 0 -20 5 -20 10
0 6 -13 10 -30 10 -16 0 -30 5 -30 10 0 6 -7 10 -16 10 -20 0 -44 24 -44 44 0
12 10 16 40 16 22 0 40 -4 40 -10 0 -5 23 -10 50 -10 28 0 50 -4 50 -10 0 -5
18 -10 40 -10 22 0 40 -4 40 -10 0 -6 27 -10 60 -10 33 0 60 -4 60 -10 0 -5
23 -10 50 -10 28 0 50 -4 50 -10 0 -6 27 -10 60 -10 33 0 60 -4 60 -10 0 -6
30 -10 70 -10 40 0 70 -4 70 -10 0 -6 33 -10 80 -10 47 0 80 -4 80 -10 0 -6
38 -10 95 -10 88 0 98 2 120 25 25 24 35 75 15 75 -5 0 -10 9 -10 20 0 13 -7
20 -20 20 -11 0 -20 5 -20 10 0 6 -40 10 -100 10 -60 0 -100 4 -100 10 0 6
-33 10 -80 10 -47 0 -80 4 -80 10 0 6 -27 10 -60 10 -33 0 -60 4 -60 10 0 6
-27 10 -60 10 -33 0 -60 4 -60 10 0 6 -22 10 -50 10 -27 0 -50 5 -50 10 0 6
-22 10 -50 10 -27 0 -50 5 -50 10 0 6 -27 10 -60 10 -33 0 -60 4 -60 10 0 6
-18 10 -40 10 -38 0 -40 2 -40 30 0 17 -4 30 -10 30 -5 0 -10 9 -10 20 0 11
-4 20 -10 20 -5 0 -10 9 -10 20 0 11 -4 20 -10 20 -5 0 -10 9 -10 20 0 11 -4
20 -10 20 -5 0 -10 8 -10 18 0 10 -9 24 -20 32 -11 8 -20 21 -20 30 0 9 -9 22
-20 30 -11 8 -20 20 -20 28 0 7 -22 35 -50 62 -27 27 -50 54 -50 60 0 14 -86
100 -100 100 -6 0 -33 23 -60 50 -27 28 -54 50 -60 50 -7 0 -25 14 -40 30 -15
17 -34 30 -42 30 -7 0 -20 9 -28 20 -8 11 -22 20 -32 20 -10 0 -18 5 -18 10 0
6 -8 10 -18 10 -10 0 -24 9 -32 20 -8 11 -22 20 -32 20 -10 0 -18 5 -18 10 0
6 -9 10 -20 10 -11 0 -20 5 -20 10 0 6 -9 10 -20 10 -11 0 -20 5 -20 10 0 6
-9 10 -20 10 -11 0 -20 5 -20 10 0 6 -9 10 -20 10 -11 0 -20 5 -20 10 0 6 -9
10 -20 10 -11 0 -20 5 -20 10 0 6 -9 10 -20 10 -11 0 -20 5 -20 10 0 6 -13 10
-30 10 -16 0 -30 5 -30 10 0 6 -9 10 -20 10 -11 0 -20 5 -20 10 0 6 -13 10
-30 10 -16 0 -30 5 -30 10 0 6 -13 10 -30 10 -16 0 -30 5 -30 10 0 6 -9 10
-20 10 -11 0 -20 5 -20 10 0 6 -13 10 -30 10 -16 0 -30 5 -30 10 0 6 -13 10
-30 10 -16 0 -30 5 -30 10 0 6 -18 10 -40 10 -22 0 -40 5 -40 10 0 6 -13 10
-30 10 -16 0 -30 5 -30 10 0 6 -13 10 -30 10 -16 0 -30 5 -30 10 0 6 -18 10
-40 10 -22 0 -40 5 -40 10 0 6 -22 10 -50 10 -27 0 -50 5 -50 10 0 6 -18 10
-40 10 -22 0 -40 5 -40 10 0 6 -18 10 -40 10 -22 0 -40 5 -40 10 0 6 -22 10
-50 10 -27 0 -50 5 -50 10 0 6 -22 10 -50 10 -27 0 -50 5 -50 10 0 6 -30 10
-70 10 -40 0 -70 4 -70 10 0 6 -27 10 -60 10 -33 0 -60 4 -60 10 0 6 -30 10
-70 10 -40 0 -70 4 -70 10 0 6 -33 10 -80 10 -47 0 -80 4 -80 10 0 6 -30 10
-70 10 -40 0 -70 -4 -70 -10z m140 -160 c0 -6 37 -10 90 -10 53 0 90 -4 90
-10 0 -6 30 -10 70 -10 40 0 70 -4 70 -10 0 -6 27 -10 60 -10 33 0 60 -4 60
-10 0 -5 23 -10 50 -10 28 0 50 -4 50 -10 0 -6 27 -10 60 -10 33 0 60 -4 60
-10 0 -5 18 -10 40 -10 22 0 40 -4 40 -10 0 -5 23 -10 50 -10 28 0 50 -4 50
-10 0 -5 18 -10 40 -10 22 0 40 -4 40 -10 0 -5 23 -10 50 -10 28 0 50 -4 50
-10 0 -5 14 -10 30 -10 17 0 30 -4 30 -10 0 -5 18 -10 40 -10 22 0 40 -4 40
-10 0 -5 14 -10 30 -10 17 0 30 -4 30 -10 0 -5 14 -10 30 -10 17 0 30 -4 30
-10 0 -5 14 -10 30 -10 17 0 30 -4 30 -10 0 -5 14 -10 30 -10 17 0 30 -4 30
-10 0 -5 9 -10 20 -10 11 0 20 -4 20 -10 0 -5 14 -10 30 -10 17 0 30 -4 30
-10 0 -5 14 -10 30 -10 17 0 30 -4 30 -10 0 -5 9 -10 20 -10 11 0 20 -4 20
-10 0 -5 9 -10 20 -10 11 0 20 -4 20 -10 0 -5 9 -10 20 -10 11 0 20 -4 20 -10
0 -5 13 -10 28 -10 16 0 34 -8 42 -20 8 -11 22 -20 32 -20 10 0 18 -4 18 -10
0 -5 9 -10 20 -10 11 0 20 -4 20 -10 0 -5 9 -10 20 -10 11 0 20 -4 20 -10 0
-5 8 -10 18 -10 10 0 24 -9 32 -20 8 -11 21 -20 30 -20 9 0 22 -9 30 -20 8
-11 21 -20 28 -20 8 0 27 -13 42 -30 15 -16 33 -30 40 -30 6 0 29 -18 50 -40
21 -22 46 -40 54 -40 9 0 16 -8 16 -20 0 -13 7 -20 20 -20 11 0 20 -7 20 -16
0 -8 27 -42 60 -74 33 -32 60 -65 60 -72 0 -8 9 -20 20 -28 11 -8 20 -22 20
-32 0 -10 5 -18 10 -18 6 0 10 -9 10 -19 0 -11 6 -21 12 -23 9 -3 8 -9 -4 -21
-11 -12 -34 -17 -72 -17 -31 0 -56 -4 -56 -10 0 -6 -27 -10 -60 -10 -33 0 -60
-4 -60 -10 0 -5 -18 -10 -40 -10 -22 0 -40 -4 -40 -10 0 -6 -30 -10 -70 -10
-40 0 -70 -4 -70 -10 0 -5 -22 -10 -50 -10 -27 0 -50 -4 -50 -10 0 -6 -27 -10
-60 -10 -33 0 -60 -4 -60 -10 0 -6 -27 -10 -60 -10 -33 0 -60 -4 -60 -10 0 -6
-30 -10 -70 -10 -40 0 -70 -4 -70 -10 0 -6 -27 -10 -60 -10 -33 0 -60 -4 -60
-10 0 -6 -33 -10 -80 -10 -47 0 -80 -4 -80 -10 0 -6 -30 -10 -70 -10 -40 0
-70 -4 -70 -10 0 -6 -40 -10 -100 -10 -60 0 -100 -4 -100 -10 0 -6 -33 -10
-80 -10 -47 0 -80 -4 -80 -10 0 -6 -37 -10 -90 -10 -53 0 -90 -4 -90 -10 0 -6
-53 -10 -140 -10 -87 0 -140 -4 -140 -10 0 -6 -47 -10 -120 -10 -73 0 -120 -4
-120 -10 0 -6 -73 -10 -200 -10 -127 0 -200 -4 -200 -10 0 -6 -107 -10 -300
-10 -193 0 -300 -4 -300 -10 0 -6 -93 -10 -260 -10 -167 0 -260 4 -260 10 0 6
-103 10 -290 10 -187 0 -290 4 -290 10 0 6 -30 10 -70 10 -40 0 -70 -4 -70
-10 0 -6 -40 -10 -100 -10 -60 0 -100 -4 -100 -10 0 -5 -18 -10 -40 -10 -22 0
-40 -4 -40 -10 0 -5 -18 -10 -40 -10 -22 0 -40 5 -40 10 0 6 5 10 10 10 6 0
10 9 10 20 0 11 5 20 10 20 6 0 10 8 10 18 0 10 9 24 20 32 11 8 20 22 20 32
0 10 5 18 10 18 6 0 10 8 10 18 0 10 9 24 20 32 11 8 20 21 20 30 0 9 9 22 20
30 11 8 20 21 20 28 0 8 14 27 30 42 17 15 30 33 30 40 0 7 14 25 30 40 17 15
30 33 30 40 0 6 27 38 60 70 33 32 60 64 60 70 0 14 106 120 120 120 6 0 42
32 80 70 38 39 74 70 81 70 6 0 24 14 39 30 15 17 33 30 40 30 7 0 25 14 40
30 15 17 34 30 42 30 7 0 20 9 28 20 8 11 21 20 30 20 9 0 22 9 30 20 8 11 22
20 32 20 10 0 18 5 18 10 0 6 9 10 20 10 11 0 20 5 20 10 0 6 8 10 18 10 10 0
24 9 32 20 8 11 22 20 32 20 10 0 18 5 18 10 0 6 9 10 20 10 11 0 20 5 20 10
0 6 14 10 30 10 17 0 30 5 30 10 0 6 9 10 20 10 11 0 20 5 20 10 0 6 9 10 20
10 11 0 20 5 20 10 0 6 9 10 20 10 11 0 20 5 20 10 0 6 14 10 30 10 17 0 30 5
30 10 0 6 14 10 30 10 17 0 30 5 30 10 0 6 9 10 20 10 11 0 20 5 20 10 0 6 14
10 30 10 17 0 30 5 30 10 0 6 18 10 40 10 22 0 40 5 40 10 0 6 14 10 30 10 17
0 30 5 30 10 0 6 18 10 40 10 22 0 40 5 40 10 0 6 23 10 50 10 28 0 50 5 50
10 0 6 23 10 50 10 28 0 50 5 50 10 0 6 23 10 50 10 28 0 50 5 50 10 0 6 30
10 70 10 40 0 70 4 70 10 0 6 37 10 90 10 53 0 90 4 90 10 0 6 33 10 80 10 47
0 80 -4 80 -10z m2260 -1340 c15 -16 34 -30 42 -30 7 0 20 -9 28 -20 8 -11 22
-20 32 -20 10 0 18 -4 18 -10 0 -5 7 -10 15 -10 9 0 31 -16 50 -35 19 -19 35
-41 35 -50 0 -8 5 -15 10 -15 6 0 10 -13 10 -30 0 -16 5 -30 10 -30 6 0 10
-13 10 -30 0 -16 5 -30 10 -30 6 0 10 -22 10 -50 0 -27 5 -50 10 -50 6 0 10
-22 10 -50 0 -27 5 -50 10 -50 6 0 10 -40 10 -100 0 -60 4 -100 10 -100 6 0
10 -27 10 -60 0 -33 -4 -60 -10 -60 -6 0 -10 -40 -10 -100 0 -60 -4 -100 -10
-100 -5 0 -10 -22 -10 -50 0 -27 -4 -50 -10 -50 -5 0 -10 -22 -10 -50 0 -27
-4 -50 -10 -50 -5 0 -10 -18 -10 -40 0 -22 -4 -40 -10 -40 -5 0 -10 -13 -10
-30 0 -16 -4 -30 -10 -30 -5 0 -10 -13 -10 -30 0 -16 -4 -30 -10 -30 -5 0 -10
-13 -10 -30 0 -16 -4 -30 -10 -30 -5 0 -10 -13 -10 -30 0 -16 -4 -30 -10 -30
-5 0 -10 -13 -10 -30 0 -16 -4 -30 -10 -30 -5 0 -10 -9 -10 -20 0 -11 -4 -20
-10 -20 -5 0 -10 -9 -10 -20 0 -11 -4 -20 -10 -20 -5 0 -10 -9 -10 -20 0 -11
-4 -20 -10 -20 -5 0 -10 -9 -10 -20 0 -11 -4 -20 -10 -20 -5 0 -10 -9 -10 -20
0 -11 -4 -20 -10 -20 -5 0 -10 -9 -10 -20 0 -11 -4 -20 -10 -20 -5 0 -10 -9
-10 -20 0 -11 -4 -20 -10 -20 -5 0 -10 -9 -10 -20 0 -11 -4 -20 -10 -20 -5 0
-10 -9 -10 -20 0 -11 -4 -20 -10 -20 -5 0 -10 -8 -10 -18 0 -10 -9 -24 -20
-32 -11 -8 -20 -22 -20 -32 0 -10 -4 -18 -10 -18 -5 0 -10 -9 -10 -20 0 -11
-4 -20 -10 -20 -5 0 -10 -8 -10 -18 0 -10 -9 -24 -20 -32 -11 -8 -20 -21 -20
-30 0 -9 -9 -22 -20 -30 -11 -8 -20 -21 -20 -30 0 -9 -9 -22 -20 -30 -11 -8
-20 -21 -20 -30 0 -9 -9 -22 -20 -30 -11 -8 -20 -21 -20 -30 0 -9 -9 -22 -20
-30 -11 -8 -20 -21 -20 -30 0 -9 -9 -22 -20 -30 -11 -8 -20 -21 -20 -28 0 -7
-18 -31 -40 -52 -22 -21 -40 -44 -40 -50 0 -7 -13 -25 -30 -40 -16 -15 -30
-33 -30 -39 0 -14 -246 -261 -261 -261 -6 0 -28 -18 -49 -40 -21 -22 -45 -40
-52 -40 -7 0 -20 -9 -28 -20 -8 -11 -21 -20 -30 -20 -9 0 -22 -9 -30 -20 -8
-11 -22 -20 -32 -20 -10 0 -18 -4 -18 -10 0 -5 -8 -10 -18 -10 -10 0 -24 -9
-32 -20 -8 -11 -22 -20 -32 -20 -10 0 -18 -4 -18 -10 0 -5 -9 -10 -20 -10 -11
0 -20 -4 -20 -10 0 -5 -9 -10 -20 -10 -11 0 -20 -4 -20 -10 0 -5 -9 -10 -20
-10 -11 0 -20 -4 -20 -10 0 -5 -9 -10 -20 -10 -11 0 -20 -4 -20 -10 0 -5 -13
-10 -30 -10 -16 0 -30 -4 -30 -10 0 -5 -13 -10 -30 -10 -16 0 -30 -4 -30 -10
0 -5 -13 -10 -30 -10 -16 0 -30 -4 -30 -10 0 -5 -13 -10 -30 -10 -16 0 -30 -4
-30 -10 0 -5 -18 -10 -40 -10 -22 0 -40 -4 -40 -10 0 -5 -18 -10 -40 -10 -22
0 -40 -4 -40 -10 0 -5 -22 -10 -50 -10 -27 0 -50 -4 -50 -10 0 -6 -37 -10 -90
-10 -53 0 -90 -4 -90 -10 0 -6 -117 -10 -330 -10 -213 0 -330 4 -330 10 0 6
-33 10 -80 10 -47 0 -80 4 -80 10 0 6 -33 10 -80 10 -47 0 -80 4 -80 10 0 6
-22 10 -50 10 -27 0 -50 5 -50 10 0 6 -22 10 -50 10 -27 0 -50 5 -50 10 0 6
-22 10 -50 10 -27 0 -50 5 -50 10 0 6 -18 10 -40 10 -22 0 -40 5 -40 10 0 6
-18 10 -40 10 -22 0 -40 5 -40 10 0 6 -18 10 -40 10 -22 0 -40 5 -40 10 0 6
-18 10 -40 10 -22 0 -40 5 -40 10 0 6 -13 10 -30 10 -16 0 -30 5 -30 10 0 6
-13 10 -30 10 -16 0 -30 5 -30 10 0 6 -9 10 -20 10 -11 0 -20 5 -20 10 0 6 -9
10 -20 10 -11 0 -20 5 -20 10 0 6 -9 10 -20 10 -11 0 -20 5 -20 10 0 6 -9 10
-20 10 -11 0 -20 5 -20 10 0 6 -8 10 -18 10 -10 0 -24 9 -32 20 -8 11 -22 20
-32 20 -10 0 -18 5 -18 10 0 6 -8 10 -18 10 -10 0 -24 9 -32 20 -8 11 -21 20
-30 20 -9 0 -22 9 -30 20 -8 11 -22 20 -32 20 -10 0 -18 5 -18 10 0 6 -7 10
-16 10 -9 0 -29 14 -44 30 -15 17 -33 30 -40 30 -6 0 -29 18 -50 40 -21 22
-43 40 -49 40 -15 0 -281 267 -281 281 0 6 -14 24 -30 39 -16 15 -30 33 -30
40 0 7 -13 25 -30 40 -16 15 -30 34 -30 42 0 7 -9 20 -20 28 -11 8 -20 22 -20
32 0 10 -4 18 -10 18 -5 0 -10 9 -10 20 0 11 -4 20 -10 20 -5 0 -10 9 -10 20
0 11 -4 20 -10 20 -5 0 -10 8 -10 18 0 10 -9 24 -20 32 -11 8 -20 22 -20 32 0
10 -4 18 -10 18 -5 0 -10 14 -10 30 0 17 -4 30 -10 30 -5 0 -10 9 -10 20 0 11
-4 20 -10 20 -5 0 -10 14 -10 30 0 17 -4 30 -10 30 -5 0 -10 14 -10 30 0 17
-4 30 -10 30 -5 0 -10 14 -10 30 0 17 -4 30 -10 30 -5 0 -10 18 -10 40 0 22
-4 40 -10 40 -5 0 -10 18 -10 40 0 22 -4 40 -10 40 -5 0 -10 18 -10 40 0 22
-4 40 -10 40 -6 0 -10 37 -10 90 0 53 -4 90 -10 90 -6 0 -10 53 -10 140 0 87
4 140 10 140 6 0 10 14 10 30 0 17 5 30 10 30 6 0 10 9 10 20 0 11 5 20 10 20
6 0 10 14 10 30 0 17 5 30 10 30 6 0 10 14 10 30 0 17 5 30 10 30 6 0 10 9 10
20 0 11 5 20 10 20 6 0 10 14 10 30 0 17 5 30 10 30 6 0 10 9 10 20 0 11 5 20
10 20 6 0 10 9 10 20 0 11 5 20 10 20 6 0 10 9 10 20 0 11 5 20 10 20 6 0 10
13 10 28 0 16 8 34 20 42 12 8 20 26 20 42 0 15 5 28 10 28 6 0 10 8 10 18 0
10 9 24 20 32 11 8 20 22 20 32 0 10 5 18 10 18 6 0 10 9 10 20 0 11 5 20 10
20 6 0 10 9 10 20 0 11 5 20 10 20 6 0 10 7 10 15 0 15 42 65 55 65 3 0 5 -13
5 -30 0 -16 -4 -30 -10 -30 -5 0 -10 -18 -10 -40 0 -22 -4 -40 -10 -40 -5 0
-10 -22 -10 -50 0 -27 -4 -50 -10 -50 -6 0 -10 -35 -10 -85 0 -78 2 -88 25
-110 15 -16 36 -25 55 -25 19 0 40 9 55 25 23 22 25 32 25 110 0 50 4 85 10
85 6 0 10 23 10 50 0 28 5 50 10 50 6 0 10 14 10 30 0 17 5 30 10 30 6 0 10 9
10 20 0 11 5 20 10 20 6 0 10 9 10 20 0 18 7 20 60 20 53 0 60 -2 60 -20 0
-11 -4 -20 -10 -20 -5 0 -10 -13 -10 -30 0 -16 -4 -30 -10 -30 -5 0 -10 -13
-10 -30 0 -16 -4 -30 -10 -30 -5 0 -10 -18 -10 -40 0 -22 -4 -40 -10 -40 -6 0
-10 -47 -10 -120 0 -73 4 -120 10 -120 6 0 10 -7 10 -16 0 -28 27 -44 74 -44
39 0 46 3 46 20 0 11 5 20 10 20 6 0 10 50 10 130 0 80 4 130 10 130 6 0 10
18 10 40 0 22 5 40 10 40 6 0 10 9 10 20 0 11 5 20 10 20 6 0 10 9 10 20 0 11
5 20 10 20 6 0 10 9 10 20 0 11 5 20 10 20 6 0 10 9 10 20 0 19 7 20 110 20
67 0 110 -4 110 -10 0 -6 103 -10 290 -10 187 0 290 4 290 10 0 6 133 10 380
10 247 0 380 4 380 10 0 6 60 10 160 10 100 0 160 4 160 10 0 6 60 10 160 10
100 0 160 4 160 10 0 6 40 10 100 10 60 0 100 4 100 10 0 6 43 10 110 10 67 0
110 4 110 10 0 6 37 10 90 10 53 0 90 4 90 10 0 6 33 10 80 10 47 0 80 4 80
10 0 6 33 10 80 10 47 0 80 4 80 10 0 6 30 10 70 10 40 0 70 4 70 10 0 6 20
10 45 10 35 0 52 -6 70 -25 14 -13 25 -29 25 -35 0 -6 23 -33 50 -60 28 -27
50 -54 50 -60 0 -7 14 -25 30 -40 17 -15 30 -33 30 -40 0 -7 14 -25 30 -40 17
-15 30 -33 30 -39 0 -17 47 -61 65 -61 8 0 15 -4 15 -10 0 -5 9 -10 20 -10 11
0 20 5 20 10 0 6 9 10 20 10 13 0 20 7 20 20 0 11 5 20 10 20 6 0 10 9 10 20
0 11 -4 20 -10 20 -5 0 -10 8 -10 18 0 10 -9 24 -20 32 -11 8 -20 21 -20 28 0
8 -13 27 -30 42 -16 15 -30 33 -30 40 0 7 -13 25 -30 40 -16 15 -30 33 -30 40
0 6 -18 29 -40 50 -58 56 -54 70 20 70 33 0 60 4 60 10 0 6 11 10 25 10 19 0
55 -30 145 -120 66 -66 124 -120 130 -120 6 0 33 -22 60 -50 27 -27 54 -50 60
-50 6 0 29 -18 50 -40 35 -37 43 -40 90 -40 31 0 57 6 66 14 16 16 19 86 4 86
-5 0 -10 9 -10 20 0 12 -7 20 -16 20 -9 0 -29 14 -44 30 -15 17 -33 30 -40 30
-6 0 -38 27 -70 60 -32 33 -64 60 -70 60 -10 0 -140 125 -140 135 0 3 18 5 40
5 22 0 40 5 40 10 0 6 25 10 56 10 49 0 59 -4 84 -30z m-4860 -370 c0 -11 -4
-20 -10 -20 -5 0 -10 -9 -10 -20 0 -11 -4 -20 -10 -20 -5 0 -10 -9 -10 -20 0
-11 -4 -20 -10 -20 -5 0 -10 -9 -10 -20 0 -11 -4 -20 -10 -20 -5 0 -10 -9 -10
-20 0 -11 -4 -20 -10 -20 -5 0 -10 14 -10 30 0 17 5 30 10 30 6 0 10 9 10 20
0 11 5 20 10 20 6 0 10 11 10 25 0 24 35 73 53 74 4 1 7 -8 7 -19z m-500 -185
c0 -3 -72 -77 -160 -165 -88 -88 -160 -164 -160 -170 0 -6 -36 -46 -80 -90
-44 -44 -80 -84 -80 -91 0 -6 -13 -24 -30 -39 -24 -22 -30 -36 -30 -70 0 -42
17 -70 43 -70 9 0 18 -6 21 -12 5 -10 7 -10 12 0 3 6 12 12 20 12 17 0 104 84
104 100 0 6 27 38 60 70 33 32 60 66 60 74 0 9 7 16 16 16 18 0 44 23 44 39 0
11 345 361 355 361 3 0 5 -27 5 -60 0 -33 -4 -60 -10 -60 -6 0 -10 -55 -10
-146 0 -113 -3 -149 -14 -160 -17 -16 -66 -19 -66 -4 0 6 -27 10 -60 10 -33 0
-60 -4 -60 -10 0 -5 -18 -10 -40 -10 -22 0 -40 -4 -40 -10 0 -5 -13 -10 -30
-10 -16 0 -30 -4 -30 -10 0 -5 -8 -10 -18 -10 -10 0 -24 -9 -32 -20 -8 -11
-20 -20 -28 -20 -18 0 -82 -66 -82 -85 0 -8 -4 -15 -10 -15 -5 0 -10 -9 -10
-20 0 -11 -4 -20 -10 -20 -5 0 -10 -9 -10 -20 0 -11 -4 -20 -10 -20 -6 0 -10
-37 -10 -90 0 -53 4 -90 10 -90 6 0 10 -13 10 -30 0 -16 5 -30 10 -30 6 0 10
-7 10 -15 0 -19 124 -145 143 -145 7 0 19 -9 27 -20 8 -12 26 -20 42 -20 15 0
28 -4 28 -10 0 -5 23 -10 50 -10 28 0 50 -4 50 -10 0 -5 18 -10 40 -10 22 0
40 5 40 10 0 6 27 10 60 10 33 0 60 4 60 10 0 6 9 10 20 10 16 0 20 -7 20 -30
0 -16 5 -30 10 -30 6 0 10 -13 10 -30 0 -16 5 -30 10 -30 6 0 10 -18 10 -40 0
-33 -3 -40 -20 -40 -11 0 -20 -4 -20 -10 0 -5 -9 -10 -20 -10 -11 0 -20 -4
-20 -10 0 -5 -13 -10 -30 -10 -16 0 -30 -4 -30 -10 0 -5 -9 -10 -20 -10 -11 0
-20 -4 -20 -10 0 -5 -13 -10 -30 -10 -16 0 -30 -4 -30 -10 0 -5 -9 -10 -20
-10 -11 0 -20 -4 -20 -10 0 -5 -13 -10 -30 -10 -16 0 -30 -4 -30 -10 0 -5 -18
-10 -40 -10 -22 0 -40 -4 -40 -10 0 -5 -13 -10 -30 -10 -16 0 -30 -4 -30 -10
0 -5 -22 -10 -50 -10 -27 0 -50 -4 -50 -10 0 -6 -27 -10 -60 -10 -33 0 -60 -4
-60 -10 0 -6 -70 -10 -190 -10 -120 0 -190 4 -190 10 0 6 -27 10 -60 10 -33 0
-60 4 -60 10 0 6 -18 10 -40 10 -22 0 -40 5 -40 10 0 6 -13 10 -30 10 -16 0
-30 5 -30 10 0 6 -9 10 -20 10 -11 0 -20 5 -20 10 0 6 -13 10 -30 10 -16 0
-30 5 -30 10 0 6 -9 10 -20 10 -11 0 -20 5 -20 10 0 6 -7 10 -15 10 -9 0 -27
11 -40 25 -23 22 -25 32 -25 110 0 50 4 85 10 85 6 0 10 27 10 60 0 33 4 60
10 60 6 0 10 18 10 40 0 22 5 40 10 40 6 0 10 14 10 30 0 17 5 30 10 30 6 0
10 14 10 30 0 17 5 30 10 30 6 0 10 9 10 20 0 11 5 20 10 20 6 0 10 9 10 20 0
11 5 20 10 20 6 0 10 9 10 20 0 11 5 20 10 20 6 0 10 8 10 18 0 10 9 24 20 32
11 8 20 21 20 30 0 9 9 22 20 30 11 8 20 20 20 27 0 16 245 263 261 263 6 0
24 14 39 30 15 17 34 30 42 30 7 0 20 9 28 20 8 11 21 20 30 20 9 0 22 9 30
20 8 11 22 20 32 20 10 0 18 5 18 10 0 6 9 10 20 10 11 0 20 5 20 10 0 6 9 10
20 10 11 0 20 5 20 10 0 6 8 10 18 10 10 0 24 9 32 20 8 11 26 20 40 20 14 0
32 9 40 20 8 12 26 20 42 20 15 0 28 5 28 10 0 6 9 10 20 10 11 0 20 5 20 10
0 6 14 10 30 10 17 0 30 5 30 10 0 6 9 10 20 10 11 0 20 5 20 10 0 6 14 10 30
10 17 0 30 5 30 10 0 6 14 10 30 10 17 0 30 5 30 10 0 6 5 10 10 10 6 0 10 -2
10 -5z m6000 -425 c0 -5 14 -10 30 -10 17 0 30 -4 30 -10 0 -5 9 -10 20 -10
11 0 20 -4 20 -10 0 -5 9 -10 20 -10 13 0 20 -7 20 -18 0 -10 9 -24 20 -32 14
-10 20 -26 20 -52 0 -21 -4 -38 -10 -38 -5 0 -10 -7 -10 -16 0 -20 -24 -44
-44 -44 -9 0 -16 -4 -16 -10 0 -5 -9 -10 -20 -10 -11 0 -20 -4 -20 -10 0 -5
-13 -10 -30 -10 -16 0 -30 -4 -30 -10 0 -6 -30 -10 -70 -10 -40 0 -70 4 -70
10 0 6 -13 10 -30 10 l-30 0 0 60 c0 33 4 60 10 60 6 0 10 27 10 60 0 33 4 60
10 60 6 0 10 7 10 15 0 33 24 44 93 45 38 0 67 -4 67 -10z m-5880 -200 c0 -5
9 -10 20 -10 17 0 20 -7 20 -40 0 -22 5 -40 10 -40 6 0 10 -40 10 -100 0 -60
4 -100 10 -100 16 0 12 -89 -4 -106 -8 -8 -31 -14 -50 -14 -20 0 -36 -4 -36
-10 0 -5 -18 -10 -40 -10 -22 0 -40 5 -40 10 0 6 -22 10 -50 10 -27 0 -50 5
-50 10 0 6 -7 10 -15 10 -20 0 -105 85 -105 105 0 8 -4 15 -10 15 -6 0 -10 29
-10 68 0 56 3 70 20 82 11 8 20 20 20 28 0 18 25 42 44 42 9 0 16 5 16 10 0 6
9 10 20 10 11 0 20 5 20 10 0 6 9 10 20 10 11 0 20 5 20 10 0 6 33 10 80 10
47 0 80 -4 80 -10z m2200 -2320 c0 -5 23 -10 50 -10 28 0 50 -4 50 -10 0 -6
30 -10 70 -10 40 0 70 -4 70 -10 0 -6 33 -10 80 -10 47 0 80 -4 80 -10 0 -6
57 -10 150 -10 93 0 150 -4 150 -10 0 -6 40 -10 100 -10 60 0 100 4 100 10 0
6 50 10 130 10 80 0 130 4 130 10 0 6 30 10 70 10 40 0 70 4 70 10 0 6 27 10
60 10 33 0 60 4 60 10 0 6 18 10 40 10 22 0 40 5 40 10 0 6 5 10 10 10 6 0 10
-37 10 -90 0 -53 4 -90 10 -90 6 0 10 -13 10 -30 0 -16 5 -30 10 -30 6 0 10
-13 10 -30 0 -16 5 -30 10 -30 6 0 10 -13 10 -30 0 -16 5 -30 10 -30 6 0 10
-13 10 -30 0 -16 5 -30 10 -30 6 0 10 -9 10 -20 0 -11 5 -20 10 -20 6 0 10
-13 10 -30 0 -16 5 -30 10 -30 6 0 10 -13 10 -30 0 -16 5 -30 10 -30 6 0 10
-13 10 -30 0 -16 5 -30 10 -30 6 0 10 -13 10 -30 0 -16 5 -30 10 -30 6 0 10
-13 10 -30 0 -16 5 -30 10 -30 6 0 10 -13 10 -30 0 -16 5 -30 10 -30 6 0 10
-9 10 -20 0 -11 -4 -20 -10 -20 -5 0 -10 9 -10 20 0 11 -4 20 -10 20 -5 0 -10
9 -10 20 0 11 -4 20 -10 20 -5 0 -10 7 -10 15 0 9 -11 27 -25 40 -21 22 -33
25 -90 25 -37 0 -65 -4 -65 -10 0 -6 -53 -10 -140 -10 -87 0 -140 -4 -140 -10
0 -6 -53 -10 -140 -10 -87 0 -140 -4 -140 -10 0 -6 -43 -10 -110 -10 -67 0
-110 -4 -110 -10 0 -5 -7 -10 -16 -10 -40 0 -44 -21 -44 -224 0 -124 4 -196
10 -196 6 0 10 -30 10 -70 0 -40 4 -70 10 -70 6 0 10 -18 10 -40 0 -22 5 -40
10 -40 6 0 10 -18 10 -40 0 -22 5 -40 10 -40 6 0 10 -13 10 -30 0 -16 5 -30
10 -30 6 0 10 -9 10 -20 0 -11 5 -20 10 -20 6 0 10 -9 10 -20 0 -11 5 -20 10
-20 6 0 10 -8 10 -18 0 -10 9 -24 20 -32 11 -8 20 -20 20 -27 0 -19 106 -123
125 -123 8 0 15 -4 15 -10 0 -5 9 -10 20 -10 11 0 20 -4 20 -10 0 -5 9 -10 20
-10 11 0 20 -4 20 -10 0 -5 18 -10 40 -10 22 0 40 -4 40 -10 0 -6 43 -10 110
-10 67 0 110 4 110 10 0 6 27 10 60 10 33 0 60 4 60 10 0 6 18 10 40 10 22 0
40 5 40 10 0 6 9 10 20 10 11 0 20 5 20 10 0 6 9 10 20 10 11 0 20 5 20 10 0
6 7 10 15 10 9 0 45 29 80 65 36 35 65 71 65 80 0 8 5 15 10 15 6 0 10 9 10
20 0 11 5 20 10 20 6 0 10 14 10 30 0 17 5 30 10 30 6 0 10 63 10 170 0 107
-4 170 -10 170 -5 0 -10 14 -10 30 0 17 -4 30 -10 30 -5 0 -10 9 -10 20 0 11
5 20 10 20 6 0 10 -9 10 -20 0 -11 5 -20 10 -20 6 0 10 -13 10 -30 0 -16 5
-30 10 -30 6 0 10 -13 10 -30 0 -16 5 -30 10 -30 6 0 10 -13 10 -30 0 -16 5
-30 10 -30 6 0 10 -13 10 -30 0 -16 5 -30 10 -30 6 0 10 -13 10 -30 0 -16 5
-30 10 -30 6 0 10 -9 10 -20 0 -11 5 -20 10 -20 6 0 10 -13 10 -30 0 -16 5
-30 10 -30 6 0 10 -13 10 -30 0 -16 5 -30 10 -30 6 0 10 -13 10 -30 0 -16 5
-30 10 -30 6 0 10 -13 10 -30 0 -16 5 -30 10 -30 6 0 10 -13 10 -30 0 -16 5
-30 10 -30 6 0 10 -13 10 -30 0 -16 5 -30 10 -30 6 0 10 -13 10 -30 0 -16 5
-30 10 -30 6 0 10 -13 10 -30 0 -16 5 -30 10 -30 6 0 10 -18 10 -40 0 -22 5
-40 10 -40 6 0 10 -13 10 -30 0 -16 5 -30 10 -30 6 0 10 -18 10 -40 0 -22 5
-40 10 -40 6 0 10 -13 10 -30 0 -16 5 -30 10 -30 6 0 10 -18 10 -40 0 -22 5
-40 10 -40 6 0 10 -13 10 -30 0 -16 5 -30 10 -30 6 0 10 -18 10 -40 0 -22 5
-40 10 -40 6 0 10 -13 10 -30 0 -16 5 -30 10 -30 6 0 10 -13 10 -30 0 -16 5
-30 10 -30 6 0 10 -18 10 -40 0 -22 5 -40 10 -40 6 0 10 -13 10 -30 0 -16 5
-30 10 -30 6 0 10 -18 10 -40 0 -22 5 -40 10 -40 6 0 10 -13 10 -30 0 -16 5
-30 10 -30 6 0 10 -18 10 -40 0 -22 5 -40 10 -40 6 0 10 -13 10 -30 0 -16 5
-30 10 -30 6 0 10 -18 10 -40 0 -22 5 -40 10 -40 6 0 10 -13 10 -30 0 -16 5
-30 10 -30 6 0 10 -18 10 -40 0 -22 5 -40 10 -40 6 0 10 -18 10 -40 0 -22 5
-40 10 -40 6 0 10 -13 10 -30 0 -16 5 -30 10 -30 6 0 10 -13 10 -30 0 -16 5
-30 10 -30 6 0 10 -18 10 -40 0 -22 5 -40 10 -40 6 0 10 -13 10 -30 0 -16 5
-30 10 -30 6 0 10 -18 10 -40 0 -22 5 -40 10 -40 6 0 10 -13 10 -30 0 -16 5
-30 10 -30 6 0 10 -18 10 -40 0 -22 5 -40 10 -40 6 0 10 -13 10 -30 0 -16 5
-30 10 -30 6 0 10 -18 10 -40 0 -22 5 -40 10 -40 6 0 10 -13 10 -30 0 -16 5
-30 10 -30 6 0 10 -18 10 -40 0 -22 5 -40 10 -40 6 0 10 -13 10 -30 l0 -30
-110 0 c-67 0 -110 -4 -110 -10 0 -6 -43 -10 -110 -10 -67 0 -110 -4 -110 -10
0 -6 -50 -10 -130 -10 -80 0 -130 -4 -130 -10 0 -6 -50 -10 -130 -10 -80 0
-130 -4 -130 -10 0 -6 -43 -10 -110 -10 -67 0 -110 -4 -110 -10 0 -6 -50 -10
-130 -10 -80 0 -130 -4 -130 -10 0 -6 -43 -10 -110 -10 -67 0 -110 -4 -110
-10 0 -6 -40 -10 -100 -10 -60 0 -100 -4 -100 -10 0 -6 -53 -10 -140 -10 -87
0 -140 -4 -140 -10 0 -6 -40 -10 -100 -10 -60 0 -100 -4 -100 -10 0 -6 -53
-10 -140 -10 -87 0 -140 -4 -140 -10 0 -6 -43 -10 -110 -10 -67 0 -110 -4
-110 -10 0 -6 -40 -10 -100 -10 -60 0 -100 -4 -100 -10 0 -15 -57 -12 -64 3
-5 10 -7 10 -12 0 -4 -9 -35 -13 -105 -13 -59 0 -99 -4 -99 -10 0 -6 -40 -10
-100 -10 -60 0 -100 -4 -100 -10 0 -6 -53 -10 -140 -10 -87 0 -140 -4 -140
-10 0 -6 -37 -10 -90 -10 -53 0 -90 -4 -90 -10 0 -6 -37 -10 -90 -10 -83 0
-90 1 -90 20 0 11 5 20 10 20 6 0 10 18 10 40 0 22 5 40 10 40 6 0 10 14 10
30 0 17 5 30 10 30 6 0 10 14 10 30 0 17 5 30 10 30 6 0 10 14 10 30 0 17 5
30 10 30 6 0 10 18 10 40 0 22 5 40 10 40 6 0 10 14 10 30 0 17 5 30 10 30 6
0 10 14 10 30 0 17 5 30 10 30 6 0 10 14 10 30 0 17 5 30 10 30 6 0 10 18 10
40 0 22 5 40 10 40 6 0 10 14 10 30 0 17 5 30 10 30 6 0 10 14 10 30 0 17 5
30 10 30 6 0 10 14 10 30 0 17 5 30 10 30 6 0 10 18 10 40 0 22 5 40 10 40 6
0 10 14 10 30 0 17 5 30 10 30 6 0 10 14 10 30 0 17 5 30 10 30 6 0 10 18 10
40 0 22 5 40 10 40 6 0 10 14 10 30 0 17 5 30 10 30 6 0 10 14 10 30 0 17 5
30 10 30 6 0 10 14 10 30 0 17 5 30 10 30 6 0 10 14 10 30 0 17 5 30 10 30 6
0 10 18 10 40 0 22 5 40 10 40 6 0 10 14 10 30 0 17 5 30 10 30 6 0 10 14 10
30 0 17 5 30 10 30 6 0 10 18 10 40 0 22 5 40 10 40 6 0 10 14 10 30 0 17 5
30 10 30 6 0 10 14 10 30 0 17 5 30 10 30 6 0 10 14 10 30 0 17 5 30 10 30 6
0 10 18 10 40 0 22 5 40 10 40 6 0 10 14 10 30 0 17 5 30 10 30 6 0 10 14 10
30 0 17 5 30 10 30 6 0 10 14 10 30 0 17 5 30 10 30 6 0 10 18 10 40 0 22 5
40 10 40 6 0 10 14 10 30 0 17 5 30 10 30 6 0 10 14 10 30 0 17 5 30 10 30 6
0 10 14 10 30 0 17 5 30 10 30 6 0 10 18 10 40 0 22 5 40 10 40 6 0 10 14 10
30 0 17 5 30 10 30 6 0 10 14 10 30 0 17 5 30 10 30 6 0 10 14 10 30 0 17 5
30 10 30 6 0 10 18 10 40 0 22 5 40 10 40 6 0 10 14 10 30 0 17 5 30 10 30 6
0 10 18 10 40 0 22 5 40 10 40 6 0 10 14 10 30 0 17 5 30 10 30 6 0 10 18 10
40 0 22 5 40 10 40 6 0 10 18 10 40 0 22 5 40 10 40 6 0 10 18 10 40 0 22 5
40 10 40 6 0 10 14 10 30 0 17 5 30 10 30 6 0 10 18 10 40 0 22 5 40 10 40 6
0 10 18 10 40 0 22 5 40 10 40 6 0 10 18 10 40 0 22 5 40 10 40 6 0 10 18 10
40 0 22 5 40 10 40 6 0 10 14 10 30 0 17 5 30 10 30 6 0 10 18 10 40 0 22 5
40 10 40 6 0 10 18 10 40 0 22 5 40 10 40 6 0 10 14 10 30 0 17 5 30 10 30 6
0 10 23 10 50 0 28 5 50 10 50 6 0 10 14 10 30 0 17 5 30 10 30 6 0 10 18 10
40 0 22 5 40 10 40 6 0 10 18 10 40 0 22 5 40 10 40 6 0 10 18 10 40 0 22 5
40 10 40 6 0 10 14 10 30 0 17 5 30 10 30 6 0 10 18 10 40 0 22 5 40 10 40 6
0 10 9 10 20 0 11 5 20 10 20 6 0 10 14 10 30 0 17 5 30 10 30 6 0 10 11 10
25 0 14 6 32 13 40 14 16 87 20 87 5z m-340 -280 c0 -16 -4 -30 -10 -30 -5 0
-10 -18 -10 -40 0 -22 -4 -40 -10 -40 -5 0 -10 -18 -10 -40 0 -22 -4 -40 -10
-40 -5 0 -10 -13 -10 -30 0 -16 -4 -30 -10 -30 -5 0 -10 -18 -10 -40 0 -22 -4
-40 -10 -40 -5 0 -10 -18 -10 -40 0 -22 -4 -40 -10 -40 -5 0 -10 -18 -10 -40
0 -22 -4 -40 -10 -40 -5 0 -10 -13 -10 -30 0 -16 -4 -30 -10 -30 -5 0 -10 -18
-10 -40 0 -22 -4 -40 -10 -40 -5 0 -10 -18 -10 -40 0 -22 -4 -40 -10 -40 -5 0
-10 -18 -10 -40 0 -22 -4 -40 -10 -40 -5 0 -10 -13 -10 -30 0 -16 -4 -30 -10
-30 -5 0 -10 -18 -10 -40 0 -22 -4 -40 -10 -40 -5 0 -10 -18 -10 -40 0 -22 -4
-40 -10 -40 -5 0 -10 -18 -10 -40 0 -22 -4 -40 -10 -40 -5 0 -10 -13 -10 -30
0 -16 -4 -30 -10 -30 -5 0 -10 -18 -10 -40 0 -22 -4 -40 -10 -40 -5 0 -10 -18
-10 -40 0 -22 -4 -40 -10 -40 -5 0 -10 -7 -10 -16 0 -36 -25 -44 -144 -44 -71
0 -116 -4 -116 -10 0 -6 -60 -10 -160 -10 -100 0 -160 -4 -160 -10 0 -6 -63
-10 -170 -10 -107 0 -170 -4 -170 -10 0 -6 -53 -10 -140 -10 l-140 0 0 30 c0
17 -4 30 -10 30 -15 0 -13 157 3 164 10 5 10 7 0 12 -10 4 -13 135 -13 605 l0
599 480 0 c313 0 480 3 480 10 0 6 110 10 310 10 l310 0 0 -30z m2140 0 c0 -5
23 -10 50 -10 28 0 50 -4 50 -10 0 -5 18 -10 40 -10 22 0 40 -4 40 -10 0 -5
23 -10 50 -10 28 0 50 -4 50 -10 0 -5 18 -10 40 -10 22 0 40 -4 40 -10 0 -5
23 -10 50 -10 28 0 50 -4 50 -10 0 -5 18 -10 40 -10 22 0 40 -4 40 -10 0 -5
23 -10 50 -10 28 0 50 -4 50 -10 0 -5 23 -10 50 -10 28 0 50 -4 50 -10 0 -5
18 -10 40 -10 22 0 40 -4 40 -10 0 -5 23 -10 50 -10 28 0 50 -4 50 -10 0 -5
18 -10 40 -10 22 0 40 -4 40 -10 0 -5 23 -10 50 -10 28 0 50 -4 50 -10 0 -5
18 -10 40 -10 22 0 40 -4 40 -10 0 -5 23 -10 50 -10 28 0 50 -4 50 -10 0 -5
23 -10 50 -10 28 0 50 -4 50 -10 0 -5 18 -10 40 -10 22 0 40 -4 40 -10 0 -5 9
-10 20 -10 18 0 20 -7 20 -60 0 -33 -4 -60 -10 -60 -6 0 -10 -27 -10 -60 0
-33 -4 -60 -10 -60 -6 0 -10 -27 -10 -60 0 -33 -4 -60 -10 -60 -6 0 -10 -30
-10 -70 0 -40 -4 -70 -10 -70 -6 0 -10 -27 -10 -60 0 -33 -4 -60 -10 -60 -6 0
-10 -30 -10 -70 0 -40 -4 -70 -10 -70 -6 0 -10 -27 -10 -60 0 -33 -4 -60 -10
-60 -6 0 -10 -27 -10 -60 0 -33 -4 -60 -10 -60 -6 0 -10 -30 -10 -70 0 -40 -4
-70 -10 -70 -5 0 -10 -25 -10 -56 0 -77 -10 -84 -114 -84 -51 0 -86 4 -86 10
0 6 -37 10 -90 10 -53 0 -90 4 -90 10 0 6 -40 10 -100 10 -60 0 -100 4 -100
10 0 6 -37 10 -90 10 -53 0 -90 4 -90 10 0 6 -22 10 -50 10 -43 0 -50 3 -50
20 0 11 -4 20 -10 20 -5 0 -10 14 -10 30 0 17 -4 30 -10 30 -5 0 -10 14 -10
30 0 17 -4 30 -10 30 -5 0 -10 14 -10 30 0 17 -4 30 -10 30 -5 0 -10 14 -10
30 0 17 -4 30 -10 30 -5 0 -10 14 -10 30 0 17 -4 30 -10 30 -5 0 -10 9 -10 20
0 11 -4 20 -10 20 -5 0 -10 14 -10 30 0 17 -4 30 -10 30 -5 0 -10 14 -10 30 0
17 -4 30 -10 30 -5 0 -10 14 -10 30 0 17 -4 30 -10 30 -5 0 -10 14 -10 30 0
17 -4 30 -10 30 -5 0 -10 14 -10 30 0 17 -4 30 -10 30 -5 0 -10 14 -10 30 0
17 -4 30 -10 30 -5 0 -10 14 -10 30 0 17 -4 30 -10 30 -5 0 -10 14 -10 30 0
17 -4 30 -10 30 -5 0 -10 9 -10 20 0 11 -4 20 -10 20 -5 0 -10 14 -10 30 0 17
-4 30 -10 30 -5 0 -10 14 -10 30 0 17 -4 30 -10 30 -5 0 -10 14 -10 30 0 17
-4 30 -10 30 -5 0 -10 14 -10 30 0 17 -4 30 -10 30 -5 0 -10 14 -10 30 0 17
-4 30 -10 30 -5 0 -10 14 -10 30 0 17 -4 30 -10 30 -5 0 -10 9 -10 20 0 11 -4
20 -10 20 -5 0 -10 14 -10 30 0 17 -4 30 -10 30 -5 0 -10 14 -10 30 0 17 -4
30 -10 30 -5 0 -10 14 -10 30 0 17 -4 30 -10 30 -5 0 -10 14 -10 30 0 27 3 30
30 30 17 0 30 -4 30 -10z m-214 -584 c8 -8 14 -26 14 -40 0 -14 5 -26 10 -26
6 0 10 -9 10 -20 0 -11 5 -20 10 -20 6 0 10 -13 10 -30 0 -16 5 -30 10 -30 6
0 10 -13 10 -30 0 -16 5 -30 10 -30 6 0 10 -13 10 -30 0 -16 5 -30 10 -30 6 0
10 -18 10 -40 0 -22 5 -40 10 -40 6 0 10 -27 10 -60 0 -33 4 -60 10 -60 6 0
10 -22 10 -50 0 -27 -4 -50 -10 -50 -5 0 -10 -22 -10 -50 0 -27 -4 -50 -10
-50 -5 0 -10 -7 -10 -15 0 -20 -105 -125 -125 -125 -8 0 -15 -4 -15 -10 0 -5
-13 -10 -30 -10 -16 0 -30 -4 -30 -10 0 -5 -22 -10 -50 -10 -27 0 -50 -4 -50
-10 0 -6 -47 -10 -120 -10 -73 0 -120 4 -120 10 0 6 -13 10 -28 10 -16 0 -34
8 -42 20 -8 11 -20 20 -28 20 -17 0 -82 65 -82 82 0 8 -9 20 -20 28 -11 8 -20
22 -20 32 0 10 -4 18 -10 18 -5 0 -10 14 -10 30 0 17 -4 30 -10 30 -5 0 -10
14 -10 30 0 17 -4 30 -10 30 -5 0 -10 18 -10 40 0 22 -4 40 -10 40 -6 0 -10
27 -10 60 0 33 -4 60 -10 60 -6 0 -10 57 -10 150 l0 150 60 0 c33 0 60 4 60
10 0 6 47 10 120 10 73 0 120 4 120 10 0 6 53 10 140 10 87 0 140 4 140 10 0
16 89 12 106 -4z m214 -76 c0 -5 -4 -10 -10 -10 -5 0 -10 5 -10 10 0 6 5 10
10 10 6 0 10 -4 10 -10z m386 -3404 c8 -8 14 -31 14 -50 0 -20 5 -36 10 -36 6
0 10 -18 10 -40 0 -22 5 -40 10 -40 6 0 10 -13 10 -30 0 -16 5 -30 10 -30 6 0
10 -18 10 -40 0 -22 5 -40 10 -40 6 0 10 -18 10 -40 0 -22 5 -40 10 -40 6 0
10 -13 10 -30 0 -16 5 -30 10 -30 6 0 10 -18 10 -40 0 -22 5 -40 10 -40 6 0
10 -18 10 -40 0 -22 5 -40 10 -40 6 0 10 -18 10 -40 0 -22 5 -40 10 -40 6 0
10 -13 10 -30 0 -16 5 -30 10 -30 6 0 10 -18 10 -40 0 -22 5 -40 10 -40 6 0
10 -18 10 -40 0 -22 5 -40 10 -40 6 0 10 -18 10 -40 0 -22 5 -40 10 -40 6 0
10 -18 10 -40 0 -22 5 -40 10 -40 6 0 10 -18 10 -40 0 -22 5 -40 10 -40 6 0
10 -13 10 -30 0 -16 5 -30 10 -30 6 0 10 -18 10 -40 0 -22 5 -40 10 -40 6 0
10 -18 10 -40 0 -22 5 -40 10 -40 15 0 12 -29 -4 -46 -10 -9 -37 -14 -80 -14
-37 0 -66 -4 -66 -10 0 -6 -27 -10 -60 -10 -33 0 -60 -4 -60 -10 0 -6 -27 -10
-60 -10 -33 0 -60 -4 -60 -10 0 -6 -30 -10 -70 -10 -40 0 -70 -4 -70 -10 0 -6
-27 -10 -60 -10 -33 0 -60 -4 -60 -10 0 -6 -27 -10 -60 -10 -33 0 -60 -4 -60
-10 0 -5 -13 -10 -30 -10 l-30 0 0 100 c0 60 -4 100 -10 100 -6 0 -10 47 -10
120 0 73 -4 120 -10 120 -6 0 -10 47 -10 120 0 73 -4 120 -10 120 -6 0 -10 47
-10 120 0 73 -4 120 -10 120 -6 0 -10 43 -10 110 0 67 -4 110 -10 110 -6 0
-10 50 -10 130 0 80 -4 130 -10 130 -16 0 -12 89 4 106 11 10 43 14 130 14 71
0 116 4 116 10 0 6 40 10 100 10 60 0 100 4 100 10 0 16 109 12 126 -4z m-746
-96 c0 -27 5 -50 10 -50 6 0 10 -43 10 -110 0 -67 4 -110 10 -110 6 0 10 -43
10 -110 0 -67 4 -110 10 -110 6 0 10 -50 10 -130 0 -80 4 -130 10 -130 6 0 10
-43 10 -110 0 -67 4 -110 10 -110 6 0 10 -50 10 -130 0 -80 4 -130 10 -130 6
0 10 -43 10 -110 0 -67 4 -110 10 -110 6 0 10 -27 10 -60 0 -33 4 -60 10 -60
6 0 10 -9 10 -20 0 -18 7 -20 80 -20 47 0 80 4 80 10 0 6 30 10 70 10 40 0 70
4 70 10 0 6 23 10 50 10 28 0 50 5 50 10 0 6 33 10 80 10 47 0 80 4 80 10 0 6
27 10 60 10 33 0 60 4 60 10 0 6 27 10 60 10 33 0 60 4 60 10 0 6 27 10 60 10
33 0 60 4 60 10 0 15 70 12 86 -4 8 -8 14 -31 14 -50 0 -20 5 -36 10 -36 6 0
10 -18 10 -40 0 -22 5 -40 10 -40 6 0 10 -18 10 -40 0 -22 5 -40 10 -40 6 0
10 -13 10 -30 0 -16 5 -30 10 -30 6 0 10 -18 10 -40 0 -22 5 -40 10 -40 6 0
10 -18 10 -40 0 -22 5 -40 10 -40 6 0 10 -13 10 -30 0 -16 5 -30 10 -30 6 0
10 -18 10 -40 0 -22 5 -40 10 -40 6 0 10 -18 10 -40 0 -22 5 -40 10 -40 6 0
10 -13 10 -30 0 -16 5 -30 10 -30 6 0 10 -18 10 -40 0 -22 5 -40 10 -40 6 0
10 -18 10 -40 l0 -40 -40 0 c-22 0 -40 -4 -40 -10 0 -6 -27 -10 -60 -10 -33 0
-60 -4 -60 -10 0 -5 -22 -10 -50 -10 -27 0 -50 -4 -50 -10 0 -6 -27 -10 -60
-10 -33 0 -60 -4 -60 -10 0 -6 -27 -10 -60 -10 -33 0 -60 -4 -60 -10 0 -5 -22
-10 -50 -10 -27 0 -50 -4 -50 -10 0 -5 -22 -10 -50 -10 -27 0 -50 -4 -50 -10
0 -6 -27 -10 -60 -10 -33 0 -60 -4 -60 -10 0 -5 -22 -10 -50 -10 -27 0 -50 -4
-50 -10 0 -5 -22 -10 -50 -10 -27 0 -50 -4 -50 -10 0 -6 -27 -10 -60 -10 -33
0 -60 -4 -60 -10 0 -5 -22 -10 -50 -10 -27 0 -50 -4 -50 -10 0 -5 -22 -10 -50
-10 -27 0 -50 -4 -50 -10 0 -6 -27 -10 -60 -10 -33 0 -60 -4 -60 -10 0 -5 -22
-10 -50 -10 -27 0 -50 -4 -50 -10 0 -5 -22 -10 -50 -10 -27 0 -50 -4 -50 -10
0 -5 -21 -10 -46 -10 -47 0 -74 16 -74 44 0 9 -4 16 -10 16 -5 0 -10 14 -10
30 0 17 -4 30 -10 30 -5 0 -10 14 -10 30 0 17 -4 30 -10 30 -5 0 -10 9 -10 20
0 11 -4 20 -10 20 -5 0 -10 14 -10 30 0 17 -4 30 -10 30 -5 0 -10 14 -10 30 0
17 -4 30 -10 30 -5 0 -10 9 -10 20 0 11 -4 20 -10 20 -5 0 -10 11 -10 25 0 36
-42 75 -80 75 -33 0 -80 -38 -80 -65 0 -8 -4 -15 -10 -15 -5 0 -10 -13 -10
-30 0 -16 -4 -30 -10 -30 -5 0 -10 -9 -10 -20 0 -11 -4 -20 -10 -20 -5 0 -10
-9 -10 -20 0 -11 -4 -20 -10 -20 -5 0 -10 -9 -10 -20 0 -11 -4 -20 -10 -20 -5
0 -10 -9 -10 -20 0 -11 -4 -20 -10 -20 -5 0 -10 -9 -10 -20 0 -11 -4 -20 -10
-20 -5 0 -10 -9 -10 -20 0 -11 -4 -20 -10 -20 -5 0 -10 -13 -10 -30 0 -16 -4
-30 -10 -30 -5 0 -10 -9 -10 -20 0 -11 -4 -20 -10 -20 -5 0 -10 -9 -10 -20 0
-17 -7 -20 -50 -20 -27 0 -50 -4 -50 -10 0 -6 -37 -10 -90 -10 -53 0 -90 -4
-90 -10 0 -6 -40 -10 -100 -10 -60 0 -100 -4 -100 -10 0 -6 -43 -10 -110 -10
-67 0 -110 -4 -110 -10 0 -6 -40 -10 -100 -10 -60 0 -100 -4 -100 -10 0 -6
-37 -10 -90 -10 -53 0 -90 -4 -90 -10 0 -6 -43 -10 -110 -10 -67 0 -110 -4
-110 -10 0 -6 -37 -10 -90 -10 -53 0 -90 -4 -90 -10 0 -6 -30 -10 -70 -10
l-70 0 0 520 0 520 390 0 c253 0 390 4 390 10 0 6 7 10 16 10 20 0 44 24 44
44 0 9 5 16 10 16 6 0 10 43 10 110 0 67 -4 110 -10 110 -7 0 -10 240 -10 700
0 460 -3 700 -10 700 -15 0 -12 49 4 66 10 10 39 14 100 14 51 0 86 4 86 10 0
6 53 10 140 10 87 0 140 4 140 10 0 6 40 10 100 10 60 0 100 4 100 10 0 6 53
10 140 10 87 0 140 4 140 10 0 6 43 10 110 10 67 0 110 4 110 10 0 6 50 10
130 10 80 0 130 4 130 10 0 6 43 10 110 10 67 0 110 4 110 10 0 6 14 10 30 10
29 0 30 -1 30 -50z m-1860 -760 c0 -427 3 -650 10 -650 6 0 10 -52 10 -136 0
-104 -3 -139 -14 -150 -12 -12 -73 -14 -350 -14 l-336 0 0 770 0 770 60 0 c33
0 60 4 60 10 0 6 40 10 100 10 60 0 100 4 100 10 0 6 53 10 140 10 87 0 140 4
140 10 0 6 18 10 40 10 l40 0 0 -650z"/>
<path d="M7300 14700 c0 -5 -18 -10 -40 -10 -22 0 -40 -4 -40 -10 0 -5 -9 -10
-20 -10 -11 0 -20 -4 -20 -10 0 -5 -9 -10 -20 -10 -11 0 -20 -4 -20 -10 0 -5
-9 -10 -20 -10 -11 0 -20 -4 -20 -10 0 -5 -9 -10 -20 -10 -11 0 -20 -4 -20
-10 0 -5 -8 -10 -18 -10 -10 0 -24 -9 -32 -20 -8 -11 -21 -20 -28 -20 -7 0
-31 -18 -52 -40 -21 -22 -43 -40 -49 -40 -15 0 -121 -106 -121 -121 0 -6 -18
-28 -40 -49 -22 -21 -40 -45 -40 -52 0 -7 -9 -20 -20 -28 -11 -8 -20 -21 -20
-30 0 -9 -9 -22 -20 -30 -11 -8 -20 -22 -20 -32 0 -10 -4 -18 -10 -18 -5 0
-10 -8 -10 -18 0 -10 -9 -24 -20 -32 -11 -8 -20 -22 -20 -32 0 -10 -4 -18 -10
-18 -5 0 -10 -9 -10 -20 0 -11 -4 -20 -10 -20 -5 0 -10 -16 -10 -35 0 -43 37
-85 75 -85 14 0 25 -4 25 -10 0 -5 23 -10 50 -10 28 0 50 -4 50 -10 0 -5 23
-10 50 -10 28 0 50 -4 50 -10 0 -6 37 -10 90 -10 53 0 90 -4 90 -10 0 -6 77
-10 210 -10 133 0 210 4 210 10 0 6 37 10 90 10 53 0 90 4 90 10 0 6 23 10 50
10 28 0 50 5 50 10 0 6 23 10 50 10 28 0 50 5 50 10 0 6 23 10 50 10 28 0 50
5 50 10 0 6 14 10 30 10 17 0 30 5 30 10 0 6 12 10 26 10 14 0 32 6 40 14 16
17 20 106 4 106 -5 0 -10 14 -10 30 0 17 -4 30 -10 30 -5 0 -10 14 -10 30 0
17 -4 30 -10 30 -5 0 -10 14 -10 30 0 17 -4 30 -10 30 -5 0 -10 14 -10 30 0
17 -4 30 -10 30 -5 0 -10 14 -10 30 0 17 -4 30 -10 30 -5 0 -10 9 -10 20 0 11
-4 20 -10 20 -5 0 -10 8 -10 18 0 10 -9 24 -20 32 -11 8 -20 21 -20 30 0 9 -9
22 -20 30 -11 8 -20 20 -20 27 0 19 -126 143 -145 143 -8 0 -15 5 -15 10 0 6
-9 10 -20 10 -11 0 -20 5 -20 10 0 6 -9 10 -20 10 -11 0 -20 5 -20 10 0 6 -13
10 -30 10 -16 0 -30 5 -30 10 0 6 -40 10 -100 10 -60 0 -100 -4 -100 -10z
m200 -160 c0 -5 9 -10 20 -10 11 0 20 -4 20 -10 0 -5 7 -10 15 -10 19 0 125
-104 125 -123 0 -7 9 -19 20 -27 11 -8 20 -22 20 -32 0 -10 5 -18 10 -18 6 0
10 -9 10 -20 0 -11 5 -20 10 -20 6 0 10 -9 10 -20 0 -11 5 -20 10 -20 6 0 10
-13 10 -30 0 -16 5 -30 10 -30 6 0 10 -13 10 -30 0 -16 5 -30 10 -30 6 0 10
-13 10 -30 0 -16 5 -30 10 -30 6 0 10 -9 10 -20 0 -16 -7 -20 -30 -20 -16 0
-30 -4 -30 -10 0 -5 -18 -10 -40 -10 -22 0 -40 -4 -40 -10 0 -6 -27 -10 -60
-10 -33 0 -60 -4 -60 -10 0 -6 -37 -10 -90 -10 -53 0 -90 -4 -90 -10 0 -6 -80
-10 -220 -10 -140 0 -220 4 -220 10 0 6 -30 10 -70 10 -40 0 -70 4 -70 10 0 6
-27 10 -60 10 -53 0 -60 2 -60 20 0 11 5 20 10 20 6 0 10 8 10 18 0 10 9 24
20 32 11 8 20 21 20 30 0 9 9 22 20 30 11 8 20 21 20 28 0 7 18 31 40 52 22
21 40 43 40 49 0 15 86 101 101 101 6 0 24 14 39 30 15 17 33 30 40 30 7 0 25
14 40 30 15 17 35 30 44 30 9 0 16 5 16 10 0 6 9 10 20 10 11 0 20 5 20 10 0
6 9 10 20 10 11 0 20 5 20 10 0 6 14 10 30 10 17 0 30 5 30 10 0 6 40 10 100
10 60 0 100 -4 100 -10z"/>
<path d="M7200 13380 c0 -5 -9 -10 -20 -10 -11 0 -20 -4 -20 -10 0 -5 -7 -10
-16 -10 -19 0 -44 -24 -44 -42 0 -8 -9 -20 -20 -28 -14 -10 -20 -26 -20 -52 0
-21 -4 -38 -10 -38 -5 0 -10 -22 -10 -50 0 -27 5 -50 10 -50 6 0 10 -13 10
-30 0 -16 5 -30 10 -30 6 0 10 -11 10 -25 0 -35 100 -135 135 -135 14 0 25 -4
25 -10 0 -5 14 -10 30 -10 17 0 30 5 30 10 0 6 11 10 25 10 29 0 115 79 115
105 0 8 5 15 10 15 6 0 10 43 10 110 0 67 -4 110 -10 110 -5 0 -10 9 -10 20 0
11 -4 20 -10 20 -5 0 -10 7 -10 15 0 26 -86 105 -115 105 -14 0 -25 5 -25 10
0 6 -18 10 -40 10 -22 0 -40 -4 -40 -10z"/>
<path d="M6600 13320 c0 -5 -7 -10 -15 -10 -19 0 -65 -44 -65 -62 0 -8 -9 -20
-20 -28 -12 -8 -20 -26 -20 -42 0 -15 -4 -28 -10 -28 -6 0 -10 -37 -10 -90 0
-53 4 -90 10 -90 6 0 10 -11 10 -25 0 -29 79 -115 105 -115 8 0 15 -4 15 -10
0 -5 23 -10 50 -10 28 0 50 5 50 10 0 6 9 10 20 10 11 0 20 5 20 10 0 6 7 10
16 10 19 0 44 24 44 42 0 8 9 20 20 28 11 8 20 22 20 32 0 10 5 18 10 18 6 0
10 14 10 30 0 17 5 30 10 30 6 0 10 30 10 70 0 40 -4 70 -10 70 -5 0 -10 14
-10 30 0 17 -4 30 -10 30 -5 0 -10 7 -10 15 0 20 -45 65 -65 65 -8 0 -15 5
-15 10 0 6 -33 10 -80 10 -47 0 -80 -4 -80 -10z"/>
<path d="M5120 12810 c0 -11 -4 -20 -10 -20 -5 0 -10 -18 -10 -40 0 -22 5 -40
10 -40 6 0 10 -18 10 -40 0 -22 5 -40 10 -40 6 0 10 -13 10 -30 0 -16 5 -30
10 -30 6 0 10 -13 10 -30 0 -16 5 -30 10 -30 6 0 10 -13 10 -30 0 -16 5 -30
10 -30 6 0 10 -9 10 -20 0 -11 5 -20 10 -20 6 0 10 -9 10 -20 0 -11 5 -20 10
-20 6 0 10 -13 10 -30 0 -16 5 -30 10 -30 6 0 10 -9 10 -20 0 -11 5 -20 10
-20 6 0 10 -8 10 -18 0 -10 9 -24 20 -32 11 -8 20 -21 20 -30 0 -9 9 -22 20
-30 11 -8 20 -22 20 -32 0 -10 5 -18 10 -18 6 0 10 -7 10 -16 0 -9 14 -29 30
-44 17 -15 30 -33 30 -40 0 -6 27 -38 60 -70 33 -32 60 -66 60 -74 0 -9 7 -16
15 -16 9 0 51 -36 95 -80 44 -44 84 -80 91 -80 6 0 24 -13 39 -30 15 -16 34
-30 42 -30 7 0 20 -9 28 -20 8 -11 22 -20 32 -20 10 0 18 -4 18 -10 0 -5 8
-10 18 -10 10 0 24 -9 32 -20 8 -11 22 -20 32 -20 10 0 18 -4 18 -10 0 -5 9
-10 20 -10 11 0 20 -4 20 -10 0 -5 9 -10 20 -10 11 0 20 -4 20 -10 0 -5 14
-10 30 -10 17 0 30 -4 30 -10 0 -5 9 -10 20 -10 11 0 20 -4 20 -10 0 -5 14
-10 30 -10 17 0 30 -4 30 -10 0 -5 9 -10 20 -10 11 0 20 -4 20 -10 0 -5 18
-10 40 -10 22 0 40 -4 40 -10 0 -5 18 -10 40 -10 22 0 40 -4 40 -10 0 -5 18
-10 40 -10 22 0 40 -4 40 -10 0 -5 23 -10 50 -10 28 0 50 -4 50 -10 0 -6 103
-10 290 -10 187 0 290 4 290 10 0 6 23 10 50 10 28 0 50 5 50 10 0 6 23 10 50
10 28 0 50 5 50 10 0 6 14 10 30 10 17 0 30 5 30 10 0 6 14 10 30 10 17 0 30
5 30 10 0 6 14 10 30 10 17 0 30 5 30 10 0 6 14 10 30 10 17 0 30 5 30 10 0 6
9 10 20 10 11 0 20 5 20 10 0 6 9 10 20 10 11 0 20 5 20 10 0 6 9 10 20 10 11
0 20 5 20 10 0 6 9 10 20 10 11 0 20 5 20 10 0 6 8 10 18 10 10 0 24 9 32 20
8 11 22 20 32 20 10 0 18 5 18 10 0 6 7 10 16 10 9 0 29 14 44 30 15 17 33 30
39 30 7 0 43 32 81 70 38 39 74 70 80 70 15 0 40 25 40 40 0 6 23 33 50 60 28
27 50 55 50 62 0 8 9 20 20 28 11 8 20 21 20 30 0 9 9 22 20 30 11 8 20 22 20
32 0 10 5 18 10 18 6 0 10 9 10 20 0 11 5 20 10 20 6 0 10 9 10 20 0 11 5 20
10 20 6 0 10 9 10 20 0 11 5 20 10 20 6 0 10 9 10 20 0 11 5 20 10 20 6 0 10
9 10 20 0 11 5 20 10 20 6 0 10 14 10 30 0 17 5 30 10 30 6 0 10 14 10 30 0
17 5 30 10 30 6 0 10 18 10 40 0 22 5 40 10 40 6 0 10 18 10 40 0 22 5 40 10
40 16 0 12 129 -4 146 -24 24 -93 18 -121 -11 -21 -20 -25 -34 -25 -80 0 -30
-4 -55 -10 -55 -5 0 -10 -18 -10 -40 0 -22 -4 -40 -10 -40 -5 0 -10 -13 -10
-30 0 -16 -4 -30 -10 -30 -5 0 -10 -13 -10 -30 0 -16 -4 -30 -10 -30 -5 0 -10
-9 -10 -20 0 -11 -4 -20 -10 -20 -5 0 -10 -13 -10 -30 0 -16 -4 -30 -10 -30
-5 0 -10 -9 -10 -20 0 -11 -4 -20 -10 -20 -5 0 -10 -8 -10 -18 0 -10 -9 -24
-20 -32 -11 -8 -20 -22 -20 -32 0 -10 -4 -18 -10 -18 -5 0 -10 -7 -10 -16 0
-9 -13 -29 -30 -44 -16 -15 -30 -33 -30 -39 0 -16 -247 -261 -263 -261 -7 0
-19 -9 -27 -20 -8 -11 -21 -20 -30 -20 -9 0 -22 -9 -30 -20 -8 -11 -22 -20
-32 -20 -10 0 -18 -4 -18 -10 0 -5 -8 -10 -18 -10 -10 0 -24 -9 -32 -20 -8
-11 -22 -20 -32 -20 -10 0 -18 -4 -18 -10 0 -5 -13 -10 -30 -10 -16 0 -30 -4
-30 -10 0 -5 -9 -10 -20 -10 -11 0 -20 -4 -20 -10 0 -5 -13 -10 -30 -10 -16 0
-30 -4 -30 -10 0 -5 -13 -10 -30 -10 -16 0 -30 -4 -30 -10 0 -5 -13 -10 -30
-10 -16 0 -30 -4 -30 -10 0 -5 -18 -10 -40 -10 -22 0 -40 -4 -40 -10 0 -5 -22
-10 -50 -10 -27 0 -50 -4 -50 -10 0 -6 -37 -10 -90 -10 -53 0 -90 -4 -90 -10
0 -6 -37 -10 -90 -10 -53 0 -90 4 -90 10 0 6 -43 10 -110 10 -67 0 -110 4
-110 10 0 6 -22 10 -50 10 -27 0 -50 5 -50 10 0 6 -18 10 -40 10 -22 0 -40 5
-40 10 0 6 -18 10 -40 10 -22 0 -40 5 -40 10 0 6 -13 10 -30 10 -16 0 -30 5
-30 10 0 6 -9 10 -20 10 -11 0 -20 5 -20 10 0 6 -13 10 -30 10 -16 0 -30 5
-30 10 0 6 -9 10 -20 10 -11 0 -20 5 -20 10 0 6 -9 10 -20 10 -11 0 -20 5 -20
10 0 6 -9 10 -20 10 -11 0 -20 5 -20 10 0 6 -9 10 -20 10 -11 0 -20 5 -20 10
0 6 -8 10 -18 10 -10 0 -24 9 -32 20 -8 11 -21 20 -30 20 -9 0 -22 9 -30 20
-8 11 -21 20 -30 20 -9 0 -22 9 -30 20 -8 11 -20 20 -27 20 -17 0 -303 286
-303 303 0 7 -9 19 -20 27 -11 8 -20 21 -20 30 0 9 -9 22 -20 30 -11 8 -20 21
-20 30 0 9 -9 22 -20 30 -11 8 -20 22 -20 32 0 10 -4 18 -10 18 -5 0 -10 9
-10 20 0 11 -4 20 -10 20 -5 0 -10 9 -10 20 0 11 -4 20 -10 20 -5 0 -10 9 -10
20 0 11 -4 20 -10 20 -5 0 -10 9 -10 20 0 11 -4 20 -10 20 -5 0 -10 14 -10 30
0 17 -4 30 -10 30 -5 0 -10 14 -10 30 0 17 -4 30 -10 30 -5 0 -10 14 -10 30 0
17 -4 30 -10 30 -5 0 -10 18 -10 40 0 22 -4 40 -10 40 -5 0 -10 11 -10 25 0
42 -41 75 -95 75 -38 0 -45 -3 -45 -20z"/>
</g>
</svg>
